<svg width="30" height="30" viewBox="0 0 30 30" fill="none" xmlns="http://www.w3.org/2000/svg">
<circle cx="15" cy="15" r="15" fill="white"/>
<path d="M6.86133 13.6952C6.86133 15.3467 8.20633 16.6902 9.85914 16.6902H19.0323C21.297 16.6902 23.1395 14.8489 23.1395 12.5858C23.1395 10.433 21.4476 8.64359 19.3238 8.49641C18.7082 6.77203 17.0954 5.62891 15.2432 5.62891C13.677 5.62891 12.2585 6.45266 11.4835 7.79547C11.3145 7.76172 11.142 7.74484 10.9685 7.74484C9.50602 7.74484 8.31633 8.93484 8.31633 10.3973C8.31633 10.6233 8.34602 10.8502 8.40445 11.0748C7.45883 11.598 6.86133 12.5983 6.86133 13.6952ZM8.90727 11.523C9.05883 11.457 9.13289 11.2839 9.0757 11.1286C8.98633 10.8858 8.94102 10.6398 8.94102 10.397C8.94102 9.27922 9.85039 8.36953 10.9682 8.36953C11.167 8.36953 11.3635 8.39859 11.552 8.45578C11.6976 8.50078 11.8538 8.43359 11.922 8.29766C12.5573 7.03703 13.8298 6.25359 15.2432 6.25359C16.8926 6.25359 18.3204 7.31266 18.7954 8.88922C18.8345 9.01953 18.9538 9.10953 19.0898 9.11141C20.9779 9.13859 22.5141 10.697 22.5141 12.5855C22.5141 14.5039 20.952 16.0648 19.032 16.0648H9.85914C8.5507 16.0648 7.48633 15.0017 7.48633 13.6948C7.48633 12.7514 8.04414 11.8992 8.90727 11.523Z" fill="#666666"/>
<path d="M12.2637 14.3749C12.3078 14.3962 12.3544 14.4065 12.4003 14.4065C12.5162 14.4065 12.6278 14.3418 12.6816 14.2309L13.1322 13.3043H15.1444L15.595 14.2309C15.6703 14.3859 15.8575 14.4509 16.0128 14.3752C16.1678 14.2996 16.2325 14.1127 16.1572 13.9574L14.4194 10.3846C14.3669 10.2771 14.2578 10.209 14.1384 10.209C14.0191 10.209 13.91 10.2771 13.8575 10.3846L12.1194 13.9574C12.0441 14.1127 12.1084 14.2993 12.2637 14.3749ZM14.1384 11.2355L14.8406 12.679H13.4362L14.1384 11.2355Z" fill="#666666"/>
<path d="M16.9102 14.4058C17.083 14.4058 17.2227 14.2658 17.2227 14.0933V10.5205C17.2227 10.348 17.083 10.208 16.9102 10.208C16.7373 10.208 16.5977 10.348 16.5977 10.5205V14.0933C16.5977 14.2658 16.7373 14.4058 16.9102 14.4058Z" fill="#666666"/>
<path d="M20.1359 22.2516C20.1359 21.5363 19.554 20.9548 18.839 20.9548C18.6152 20.9548 18.408 21.017 18.224 21.117L17.0137 19.9066V17.3301C17.0137 17.1576 16.874 17.0176 16.7012 17.0176C16.5284 17.0176 16.3887 17.1576 16.3887 17.3301V20.036C16.3887 20.1188 16.4215 20.1985 16.4802 20.257L17.759 21.5357C17.6224 21.741 17.5418 21.987 17.5418 22.2516C17.5418 22.967 18.1237 23.5485 18.8387 23.5485C19.5537 23.5485 20.1359 22.9666 20.1359 22.2516ZM18.839 22.9235C18.4684 22.9235 18.1671 22.622 18.1671 22.2516C18.1671 21.8813 18.4687 21.5798 18.839 21.5798C19.2093 21.5798 19.5109 21.8813 19.5109 22.2516C19.5109 22.622 19.2093 22.9235 18.839 22.9235Z" fill="#666666"/>
<path d="M21.1241 20.8116C21.8391 20.8116 22.4209 20.2297 22.4209 19.5147C22.4209 18.7997 21.8391 18.2179 21.1241 18.2179C20.5172 18.2179 20.0103 18.6385 19.8694 19.2022H18.6797V17.3291C18.6797 17.1566 18.54 17.0166 18.3672 17.0166C18.1944 17.0166 18.0547 17.1566 18.0547 17.3291V19.5147C18.0547 19.6872 18.1944 19.8272 18.3672 19.8272H19.8694C20.0103 20.391 20.5172 20.8116 21.1241 20.8116ZM21.1241 18.8425C21.4947 18.8425 21.7959 19.1441 21.7959 19.5144C21.7959 19.8847 21.4944 20.1863 21.1241 20.1863C20.7538 20.1863 20.4522 19.8847 20.4522 19.5144C20.4522 19.1441 20.7538 18.8425 21.1241 18.8425Z" fill="#666666"/>
<path d="M15 17.0166C14.8272 17.0166 14.6875 17.1566 14.6875 17.3291V21.8238C14.1237 21.9647 13.7031 22.4716 13.7031 23.0782C13.7031 23.7935 14.285 24.375 15 24.375C15.715 24.375 16.2969 23.7932 16.2969 23.0782C16.2969 22.4713 15.8762 21.9644 15.3125 21.8238V17.3291C15.3125 17.1566 15.1728 17.0166 15 17.0166ZM15.6719 23.0782C15.6719 23.4488 15.3703 23.75 15 23.75C14.6297 23.75 14.3281 23.4485 14.3281 23.0782C14.3281 22.7079 14.6297 22.4063 15 22.4063C15.3703 22.4063 15.6719 22.7075 15.6719 23.0782Z" fill="#666666"/>
<path d="M10.1316 19.8272H11.6338C11.8066 19.8272 11.9463 19.6872 11.9463 19.5147V17.3291C11.9463 17.1566 11.8066 17.0166 11.6338 17.0166C11.461 17.0166 11.3213 17.1566 11.3213 17.3291V19.2022H10.1316C9.9907 18.6385 9.48383 18.2179 8.87695 18.2179C8.16195 18.2179 7.58008 18.7997 7.58008 19.5147C7.58008 20.2297 8.16195 20.8116 8.87695 20.8116C9.48383 20.8116 9.9907 20.391 10.1316 19.8272ZM8.20508 19.5147C8.20508 19.1441 8.50664 18.8429 8.87695 18.8429C9.24727 18.8429 9.54883 19.1444 9.54883 19.5147C9.54883 19.885 9.24727 20.1866 8.87695 20.1866C8.50664 20.1866 8.20508 19.885 8.20508 19.5147Z" fill="#666666"/>
<path d="M13.6105 20.035V17.3291C13.6105 17.1566 13.4708 17.0166 13.298 17.0166C13.1252 17.0166 12.9855 17.1566 12.9855 17.3291V19.9057L11.7752 21.116C11.5914 21.016 11.3839 20.9538 11.1602 20.9538C10.4452 20.9538 9.86328 21.5357 9.86328 22.2507C9.86328 22.9657 10.4452 23.5475 11.1602 23.5475C11.8752 23.5475 12.457 22.9657 12.457 22.2507C12.457 21.986 12.3764 21.74 12.2398 21.5347L13.5186 20.256C13.5773 20.1972 13.6105 20.1179 13.6105 20.035ZM11.1602 22.9229C10.7895 22.9229 10.4883 22.6213 10.4883 22.251C10.4883 21.8807 10.7898 21.5791 11.1602 21.5791C11.5305 21.5791 11.832 21.8807 11.832 22.251C11.832 22.6213 11.5305 22.9229 11.1602 22.9229Z" fill="#666666"/>
</svg>
