<svg width="36" height="36" viewBox="0 0 36 36" fill="none" xmlns="http://www.w3.org/2000/svg"><path d="M21.75 10.875a.375.375 0 1 0 0-.75.375.375 0 0 0 0 .75m3 12a.375.375 0 1 0 0-.75.375.375 0 0 0 0 .75m0-15a.375.375 0 1 0 0-.75.375.375 0 0 0 0 .75m-3 21a.375.375 0 1 0 0-.75.375.375 0 0 0 0 .75M16.651 5.941a22.1 22.1 0 0 0-7.65-2.263q-.763-.078-1.477-.103A2.93 2.93 0 0 0 4.5 6.507v20.784a2.92 2.92 0 0 0 3.01 2.946 15.4 15.4 0 0 1 8.89 2.304 3 3 0 0 0 1.225.406V6.22a3 3 0 0 1-.974-.279m-3.15 16.934h-6a.375.375 0 0 1 0-.75h6a.375.375 0 1 1 0 .75m0-1.5h-6a.375.375 0 0 1 0-.75h6a.375.375 0 1 1 0 .75M7.124 19.5a.375.375 0 0 1 .375-.375h3a.375.375 0 1 1 0 .75h-3a.375.375 0 0 1-.375-.375m9.375-5.625h-1.2a1.83 1.83 0 0 1-1.425 1.424v1.2a.375.375 0 0 1-.75 0v-1.124h-2.25V16.5a.375.375 0 0 1-.75 0v-1.201A1.83 1.83 0 0 1 8.7 13.875H7.5a.375.375 0 0 1 0-.75h1.124v-2.25H7.5a.375.375 0 0 1 0-.75h1.201A1.83 1.83 0 0 1 10.125 8.7V7.5a.375.375 0 1 1 .75 0v1.125h2.25V7.5a.375.375 0 1 1 .75 0v1.2a1.83 1.83 0 0 1 1.425 1.425h1.2a.375.375 0 1 1 0 .75h-1.125v2.25H16.5a.375.375 0 1 1 0 .75" fill="#07f"/><path d="M29.743 13.875a3.35 3.35 0 0 1-2.387-.99l-1.242-1.241a2.6 2.6 0 0 0-1.857-.77H22.8a1.125 1.125 0 1 1 0-.75h1.458a3.35 3.35 0 0 1 2.387.99l1.242 1.242a2.6 2.6 0 0 0 1.857.769H31.5v-2.25h-1.757a3.35 3.35 0 0 1-2.387-.99l-1.722-1.721a1.1 1.1 0 0 1-.884.46 1.125 1.125 0 1 1 0-2.25 1.11 1.11 0 0 1 1.086.93l2.05 2.051a2.6 2.6 0 0 0 1.857.77H31.5V6.503a2.924 2.924 0 0 0-3.024-2.93q-.714.026-1.476.104a22.1 22.1 0 0 0-7.65 2.263 3 3 0 0 1-.975.28v26.726c.433-.045.85-.184 1.225-.406a15.4 15.4 0 0 1 8.89-2.304 2.92 2.92 0 0 0 3.01-2.943v-1.42h-1.757a2.6 2.6 0 0 0-1.857.77l-1.242 1.242a3.35 3.35 0 0 1-2.387.989H22.8a1.125 1.125 0 1 1 0-.75h1.458a2.6 2.6 0 0 0 1.857-.77l1.242-1.242a3.35 3.35 0 0 1 2.387-.988H31.5v-2.25h-5.7a1.125 1.125 0 1 1 0-.75h5.7v-2.25H21.3a1.125 1.125 0 1 1 0-.75h10.2v-2.25h-3.257a3.35 3.35 0 0 1-2.387-.99l-1.242-1.241a2.6 2.6 0 0 0-1.857-.77H21.3a1.125 1.125 0 1 1 0-.75h1.458a3.35 3.35 0 0 1 2.387.99l1.242 1.242a2.6 2.6 0 0 0 1.857.769H31.5v-2.25zM13.5 9.375h-3c-.621 0-1.125.504-1.125 1.125v3c0 .621.504 1.125 1.125 1.125h3c.621 0 1.125-.504 1.125-1.125v-3c0-.621-.504-1.125-1.125-1.125" fill="#07f"/><path d="M20.25 13.875a.375.375 0 1 0 0-.75.375.375 0 0 0 0 .75m0 6a.375.375 0 1 0 0-.75.375.375 0 0 0 0 .75M7.546 30.987a3.56 3.56 0 0 1-2.638-.993 3.75 3.75 0 0 1-1.158-2.703V7.5h-.844a1.5 1.5 0 0 0-1.5 1.507L1.5 29.2a2.987 2.987 0 0 0 3.582 2.937 23.1 23.1 0 0 1 8.449-.16 15 15 0 0 0-1.713-.573 14.6 14.6 0 0 0-4.272-.419M34.407 8.993a1.5 1.5 0 0 0-1.5-1.493h-.657v19.795a3.75 3.75 0 0 1-1.156 2.7 3.6 3.6 0 0 1-2.64.992 13.6 13.6 0 0 0-5.985.992 23.1 23.1 0 0 1 8.449.16A2.988 2.988 0 0 0 34.5 29.2z" fill="#07f"/></svg>