<svg width="36" height="36" viewBox="0 0 36 36" fill="none" xmlns="http://www.w3.org/2000/svg"><path d="M31.669 9.692H21.544a.7.7 0 0 1-.484-.191c-.85-.806-4.18-3.968-4.967-4.72a2.34 2.34 0 0 0-1.738-.86l-10.024.006a2.084 2.084 0 0 0-2.081 2.08v23.609a2.463 2.463 0 0 0 2.464 2.464h26.572a2.463 2.463 0 0 0 2.464-2.464V11.773a2.084 2.084 0 0 0-2.081-2.08M18 27.737a7.217 7.217 0 0 1-7.206-7.205c.404-9.561 14.01-9.558 14.412 0A7.216 7.216 0 0 1 18 27.737" fill="#07F"/><path d="M17.999 14.451a6.09 6.09 0 0 0-6.081 6.08c.335 8.068 11.828 8.065 12.161 0a6.09 6.09 0 0 0-6.08-6.08m-.563 2.756a.563.563 0 0 1 1.125 0v4.832a.563.563 0 0 1-1.125 0zm.574 7.212a.563.563 0 1 1 .396-.96.563.563 0 0 1-.396.96M31.22 8.567V7.245a2.463 2.463 0 0 0-2.463-2.463h-11.03l3.988 3.785z" fill="#07F"/></svg>