<svg width="37" height="37" viewBox="0 0 37 37" fill="none" xmlns="http://www.w3.org/2000/svg"><path d="M15.844 26.277h5.455v.737h-5.455z" fill="#07f"/><path d="M22.546 27.637a.62.62 0 0 1-.625.624h-6.703a.623.623 0 0 1-.624-.624v-1.36H3.62v.673a2.06 2.06 0 0 0 2.06 2.054h25.665A2.06 2.06 0 0 0 33.4 26.95v-.674H22.546zm6.517-25.752a6.95 6.95 0 0 0-6.934 6.934c.386 9.2 13.479 9.199 13.869 0a6.944 6.944 0 0 0-6.935-6.934m.774 10.492a.63.63 0 0 1-.805-.362l-.65-1.685h-2.134l-.649 1.685a.625.625 0 0 1-1.167-.45l2.297-5.948a.627.627 0 0 1 1.167 0l1.486 3.839c.02.019.793 2.09.811 2.11a.63.63 0 0 1-.356.81m4.756-2.934h-1.117v1.118a.624.624 0 0 1-1.248 0V9.443H31.11a.624.624 0 0 1 0-1.248h1.118V7.078a.624.624 0 1 1 1.248 0v1.117h1.117a.624.624 0 0 1 0 1.248" fill="#07f"/><path d="M26.734 9.081h1.161l-.58-1.504zm4.621 7.589c-5.398 1.696-11.09-3.01-10.436-8.638H6.725a.935.935 0 0 0-.936.937v16.06h25.566zm-18.862 4.563H8.317a.624.624 0 1 1 0-1.248h4.176a.625.625 0 0 1 0 1.248m0-4.063H8.317a.624.624 0 0 1 0-1.248h4.176a.625.625 0 0 1 0 1.248m0-4.063H8.317a.624.624 0 0 1 0-1.249h4.176a.624.624 0 0 1 0 1.249m6.191 6.997-1.99 1.922a.6.6 0 0 1-.432.175c-.39.05-.965-.78-1.36-1.13a.625.625 0 0 1 .899-.868l.474.487 1.542-1.485a.625.625 0 0 1 .867.899m.15-4.095-1.954 1.954a.62.62 0 0 1-.443.18c-.375.057-.95-.743-1.367-1.104a.627.627 0 0 1 .887-.886l.48.487 1.517-1.517a.624.624 0 0 1 .88.886m0-4.063-1.954 1.953a.64.64 0 0 1-.443.181c-.375.056-.978-.771-1.367-1.104a.627.627 0 0 1 .887-.887l.48.487 1.517-1.517a.624.624 0 0 1 .88.887m5.767 9.287h-3.12a.624.624 0 0 1 0-1.248h3.12a.625.625 0 0 1 0 1.248m5.505-1.186-1.623 1.929a.63.63 0 0 1-.48.218c-.45.049-.83-.74-1.224-1.173a.624.624 0 0 1 .98-.774l.262.337 1.13-1.342a.625.625 0 0 1 .955.805" fill="#07f"/></svg>