<svg width="204" height="147" viewBox="0 0 204 147" fill="none" xmlns="http://www.w3.org/2000/svg"><path d="M83.524 70.137c.072.119.312.17.502.108l6.142-2.022c.154.02 3.069.406 3.91 1.921.427.77.107 1.452-.06 1.737q-.709.391-1.53.785a35 35 0 0 1-3.365 1.398c-.343.187-.233.454.144.502 1.623.209 4.664.397 7.094-.621.33-.138.63-.29.896-.445.94-.542 1.475-1.105 1.503-1.134.195-.21.693-.76 1.334-2.02.475-.933.645-1.467 1.14-2.246.222-.35.511-.572.681-.737 1.898-1.195 4.777-3 8.308-5.192 11.284-7.004 10.004-6.018 14.277-8.77 4.176-2.69 8.884-5.1 12.915-7.863.447-.306 1.003-.694 1.694-1.093a15.4 15.4 0 0 1 5.138-1.851c1.956-.34 2.448-.075 4.367-.537 1.512-.365 2.699-.89 3.597-1.408 1.349-.779 2.044-1.543 2.204-1.725.617-.701.926-1.364 1.083-1.892.073-.244-.373-.429-.75-.31l-7.07 2.212c-.588-.186-2.288-.782-3.263-2.028a3.4 3.4 0 0 1-.331-.505 2.74 2.74 0 0 1-.333-1.434q.003-.061.009-.119l.004-.042a2 2 0 0 1 .048-.28l5.627-2.153.037-.023.017-.01.045-.035.013-.011.012-.012.022-.024a.2.2 0 0 0 .055-.135c0-.116-.12-.219-.33-.254a19.4 19.4 0 0 0-2.903-.27c-.867-.016-4.609.216-7.521 1.5q-.17.075-.322.163c-1.657.957-1.762 2.966-1.762 2.972-.033 2.112-1.787 3.248-1.798 3.255-.015.009-2.196 1.794-3.419 2.504-2.565 1.49-4.716 3.201-7.196 4.738-6.563 4.064-9.844 6.096-11.617 7.284-4.659 3.123-9.868 5.971-14.316 9.195-.129.093-.375.274-.745.487-.473.273-1.147.6-2.036.863-.788.233-1.486.341-1.88.392-1.02-.08-3.355-.176-5.475.629-.408.155-.746.32-1.05.495-.416.24-.767.5-1.142.781-.772.579-2.08 1.542-2.64 2.87a.44.44 0 0 0 .035.41" fill="#E6E6E6"/><path d="M143.746 32.54c.001.354.075.803.337 1.293l5.36-2.051c.139-.077.202-.167.202-.25l-.006-1.977q.001.067-.055.135l-.022.024-.012.012-.013.011-.045.035-.017.01-.037.023-5.627 2.153a2 2 0 0 0-.048.28l-.004.042a2 2 0 0 0-.013.26" fill="#D4E8FF"/><path d="m83.455 67.347.001.02.013.07.002.01.01.032.003.005a.4.4 0 0 0 .028.06l.012.022.014.019.018.02q.002 0 .002.002l.005.003a.2.2 0 0 0 .04.03l.035.017.008.004a.4.4 0 0 0 .11.031l.03.004.013.002.02.001.018.001h.051l.021-.002.015-.002.021-.003a.4.4 0 0 0 .081-.02l6.142-2.02h.012l.008.002h.004l.034.005h.006l.017.003.006.001.025.004h.004l.024.004.01.002.022.003.043.007h.003l.034.006.011.002.029.005.013.002.04.008.054.01.017.003.04.007.02.004.04.008.023.005.039.007.025.006.042.009.025.005.05.01.018.005.218.05.03.008.048.012.03.008.05.013.03.008.056.015.025.007.082.023.008.002.075.022.028.009.142.044.018.005.009.003.143.048.02.006.144.052.02.007a7 7 0 0 1 .31.124l.019.008a6 6 0 0 1 .309.144l.016.008q.074.036.144.076l.015.007.142.082.008.005.007.004.044.027.032.02.045.029.03.02.047.031.027.019.06.042.012.009.07.053.02.016.049.038.026.022.04.034.027.024.038.034.005.004.016.015.047.045.024.025.041.042.024.025.04.046.021.023.048.058.01.011v.002l.02.025.03.04.019.027.026.039.02.03.024.037.018.031.02.032.006.012.03.057.01.019.018.038.01.021.015.035.01.022.013.035.005.013.003.008.015.043.005.015.018.058.003.012.025.103.002.011.002.008.018.119.002.016a1 1 0 0 1 .008.117v.043l.006 1.977-.003-.1-.001-.015-.004-.045-.002-.017-.008-.058v-.004l-.01-.056-.005-.02-.008-.038-.005-.019-.011-.045-.004-.012-.017-.058-.006-.014-.015-.044-.008-.021-.023-.057-.015-.035-.01-.021-.018-.038-.01-.019-.03-.057-.025-.043-.019-.032-.024-.037-.02-.03-.026-.038-.02-.028-.029-.04-.019-.025-.01-.013-.048-.057-.021-.024a2 2 0 0 0-.106-.113l-.024-.025-.047-.044-.02-.02-.038-.034-.027-.024-.041-.034-.026-.022-.047-.038-.021-.016-.07-.053-.013-.009-.06-.042-.026-.019-.047-.031-.03-.02-.045-.029-.033-.02-.043-.027-.016-.009a5 5 0 0 0-.3-.165l-.017-.008-.145-.07-.018-.009-.146-.065-.018-.008-.146-.06-.02-.008-.145-.056-.02-.007-.144-.052-.02-.006-.143-.048-.026-.008-.053-.017-.033-.01-.056-.017-.028-.009-.076-.022-.008-.002-.082-.023-.025-.007-.055-.015-.03-.008-.05-.013-.108-.027-.075-.018-.057-.014-.087-.02-.018-.003-.05-.011-.024-.005-.042-.01-.026-.005-.038-.007-.025-.005-.059-.012-.04-.007-.017-.004-.053-.01-.041-.007-.013-.002-.029-.005-.01-.002-.035-.005h-.002l-.034-.006-.01-.002-.022-.003-.01-.002-.024-.004h-.004l-.025-.004h-.006l-.017-.003h-.005l-.034-.006h-.004l-.01-.001h-.002l-.008-.002-6.143 2.022-.019.006-.008.002-.02.005-.009.002-.01.002-.015.002-.01.002-.01.001-.015.002h-.008l-.014.001-.014.001h-.055l-.02-.002h-.005l-.009-.002-.029-.004h-.007l-.005-.002-.057-.014-.004-.001-.007-.003-.03-.011-.008-.004-.034-.017-.002-.001-.013-.009-.01-.006-.016-.014q-.002 0-.005-.003l-.002-.003-.018-.02-.002-.001-.012-.017-.01-.016-.002-.006-.011-.021-.005-.011-.012-.028-.002-.004v-.001l-.011-.033-.002-.009-.006-.023-.001-.004-.001-.008-.004-.021-.001-.013-.002-.021v-.018l-.006-1.978z" fill="#fff"/><path d="M101.92 64.79c1.898-1.194 4.777-3 8.308-5.192 11.284-7.004 10.004-6.017 14.278-8.77 4.175-2.69 8.883-5.1 12.914-7.863.447-.306 1.003-.694 1.694-1.093l.114-.065.038-.021.078-.044.047-.026.072-.04.051-.027.07-.038.054-.028.07-.037a2 2 0 0 1 .126-.065l.058-.03.071-.035.06-.03.133-.064.072-.035.063-.03.074-.034.064-.03.076-.034.064-.029.079-.034.064-.029.081-.034.065-.028.084-.034.065-.027.088-.036.063-.025.011-.004.059-.023.092-.036.073-.027.092-.034.075-.028.092-.033.078-.027.093-.032.08-.027.094-.031.082-.027.095-.03.18-.056.086-.025.098-.029.039-.011.033-.01.228-.062.019-.005a20 20 0 0 1 .552-.136l.023-.005q.13-.03.262-.057l.031-.007.043-.008.168-.033.074-.015a16 16 0 0 1 .603-.102l.025-.004.098-.014.012-.002.098-.014h.007l.09-.012.027-.004.075-.009.02-.002.09-.01.022-.003.07-.007.024-.002.086-.01h.002l.083-.007.022-.002.067-.006h.012l.005-.001.081-.007.02-.001.065-.005.02-.001.078-.006h.012l.068-.005h.02l.076-.005h.002l.074-.005h.021l.067-.005h.006l.079-.004.071-.004h.016l.073-.005h.018l.057-.004.021-.001.072-.004h.01l.064-.005.02-.001.067-.005h.008l.072-.005.021-.002.061-.005h.014l.137-.013h.01l.135-.015.012-.001.146-.017h.005l.169-.023.046-.007.028-.004.051-.008.024-.004.076-.012.005-.001.073-.013.027-.004.053-.01.032-.006a9 9 0 0 0 .349-.07l.021-.004.078-.017.032-.008.073-.016.031-.007.104-.025.26-.065.029-.008q.121-.031.241-.065l.038-.01.235-.069.044-.013.195-.061.049-.016q.111-.035.219-.072l.043-.015.183-.064.045-.017.206-.076.042-.017.141-.055.229-.094a6 6 0 0 0 .223-.096l.119-.053.095-.044a5 5 0 0 0 .207-.098l.116-.057.084-.042.116-.06.075-.04.124-.067.061-.033.177-.1c1.35-.78 2.045-1.544 2.205-1.726.617-.701.926-1.364 1.083-1.892a.2.2 0 0 0 .007-.053l.006 1.977a.2.2 0 0 1-.008.053c-.157.528-.465 1.19-1.083 1.892-.16.182-.855.946-2.204 1.725l-.177.1-.061.034-.124.067-.075.039-.117.06-.084.042-.116.058-.089.043-.117.055-.095.043-.12.054q-.05.023-.099.043l-.123.053-.104.043-.126.051-.053.022-.13.05-.205.076-.046.016-.183.065-.043.015-.218.072-.05.016-.194.06-.045.014a12 12 0 0 1-.514.144l-.028.007a17 17 0 0 1-.365.09l-.031.008-.072.016-.033.007-.078.017-.02.005-.095.02-.006.001-.023.005-.057.011-.033.007-.052.01-.033.006-.051.01-.031.006-.054.01-.026.004-.155.026q-.011 0-.023.003l-.052.008-.028.004-.046.007-.014.002-.007.001a8 8 0 0 1-.298.038h-.012a9 9 0 0 1-.282.028h-.015l-.061.006-.02.001-.073.005h-.008l-.066.005-.021.002q-.032 0-.065.004h-.008l-.073.004-.02.002-.06.003h-.013l-.075.005h-.016l-.161.01-.062.002-.021.002-.074.004h-.003l-.096.006-.065.004h-.015l-.078.006-.02.002-.064.004-.02.002-.081.006-.018.002-.089.007-.08.008h-.005l-.085.009-.025.002-.07.008-.021.002-.09.01-.019.002-.077.01-.026.003-.092.012h-.005l-.099.014-.027.004-.083.012-.024.004-.105.016-.023.004-.089.014-.031.005-.429.078-.169.033-.073.015-.263.057-.022.005-.239.057-.063.015-.25.064-.019.005q-.115.03-.229.063l-.072.02-.097.03-.086.025-.097.03-.178.055-.083.027-.093.031-.08.027-.093.032-.078.028-.092.033-.076.027-.091.034-.073.028-.092.035-.07.027-.063.026-.154.062-.083.034-.065.028-.081.035-.065.028-.078.034-.064.03-.14.063-.074.035-.063.03-.073.034-.061.03-.071.035-.06.03-.071.035-.058.03-.127.065-.069.036-.054.029-.07.038-.051.027-.072.04-.047.026-.23.13c-.691.399-1.235.804-1.694 1.092-4.269 2.684-8.713 5.255-12.888 7.945-4.274 2.753-3.02 1.76-14.304 8.763-3.531 2.192-6.41 3.923-8.308 5.117-.17.166-.417.42-.681.737-.589.71-.838 1.232-1.313 2.165-.642 1.258-.966 1.892-1.161 2.101-.028.03-.564.592-1.503 1.135a8 8 0 0 1-1.05.507l-.043.016a9 9 0 0 1-.445.159l-.083.026-.157.048-.066.02q-.007 0-.014.003l-.2.055-.055.014a9 9 0 0 1-.403.095l-.057.012-.021.005-.198.038-.045.009-.178.031-.07.012-.164.025-.062.01q-.014 0-.027.004l-.187.024-.012.002-.226.026-.07.008-.237.022-.068.006-.07.005-.235.017-.106.006-.128.007-.104.004-.128.005q-.051 0-.101.003l-.03.001-.066.001-.422.004h-.095l-.164-.003-.083-.001-.203-.006h-.038l-.031-.002-.167-.007-.066-.003-.326-.018-.062-.004-.153-.011-.03-.002-.176-.015-.051-.004-.122-.011-.06-.006-.054-.005-.051-.005-.068-.007-.1-.011-.062-.007-.103-.012-.05-.006-.189-.024-.006-.002-.037-.008q-.008 0-.014-.003l-.027-.008-.008-.002-.004-.002-.045-.018q-.004 0-.007-.003l-.038-.02-.003-.001-.001-.001-.027-.017q0-.003-.003-.004l-.02-.015-.001-.002-.003-.003-.022-.023-.002-.003-.002-.002-.015-.023v-.001l-.003-.004-.008-.018-.002-.004-.001-.005-.005-.016-.001-.004v-.004l-.003-.018v-.01l-.006-1.977v.01l.003.018.001.008.008.025.008.018.003.005.016.023.004.005.021.023.005.005.019.015.004.004.026.017.004.002.038.02.007.003a1 1 0 0 0 .085.03l.013.003.037.008.007.002.04.006.148.018.049.006.105.012.06.007.102.01.066.008.29.027.049.004.177.015.028.002a22 22 0 0 0 .775.043l.031.001.038.001.203.006.084.001a18 18 0 0 0 .68-.001l.096-.002.1-.003.13-.005.104-.005.127-.006.107-.006.128-.009.107-.008.137-.01.081-.008.156-.015.07-.008.226-.026.012-.002q.107-.013.215-.029l.061-.009a13 13 0 0 0 .413-.068l.044-.008.22-.044.056-.012.166-.037.07-.016.168-.042.053-.014q.108-.027.216-.059l.065-.019a10 10 0 0 0 .602-.2 9 9 0 0 0 .28-.111c.33-.139.63-.291.896-.445.94-.543 1.475-1.105 1.503-1.135.195-.209.52-.843 1.161-2.101.475-.933.724-1.455 1.313-2.165.264-.317.512-.57.681-.736" fill="#fff"/><path d="M83.524 67.567c.072.119.312.17.502.108l6.142-2.022c.154.02 3.069.406 3.91 1.921.427.77.107 1.452-.06 1.737q-.709.391-1.53.785a35 35 0 0 1-3.365 1.398c-.343.187-.233.454.144.502 1.623.208 4.664.397 7.094-.621.33-.139.63-.29.896-.445.94-.542 1.475-1.105 1.503-1.135.195-.209.52-.843 1.161-2.1.475-.934.724-1.456 1.313-2.165a10 10 0 0 1 .681-.738c1.898-1.194 4.777-3 8.308-5.191 11.284-7.004 10.004-6.018 14.277-8.77 4.176-2.69 8.884-5.1 12.915-7.864.447-.306 1.003-.693 1.694-1.092a15.4 15.4 0 0 1 5.138-1.851c1.956-.34 2.448-.075 4.367-.537 1.512-.365 2.699-.89 3.597-1.408 1.349-.779 2.044-1.543 2.204-1.725.617-.701.926-1.364 1.083-1.892.073-.244-.373-.429-.75-.31l-7.07 2.212c-.588-.186-2.288-.782-3.263-2.028a3.4 3.4 0 0 1-.331-.505 2.74 2.74 0 0 1-.333-1.434q.003-.062.009-.119l.004-.042a2 2 0 0 1 .048-.28l5.627-2.154.037-.022.017-.01.045-.035.013-.012.012-.012.022-.024a.2.2 0 0 0 .055-.135c0-.115-.12-.218-.33-.254a19.4 19.4 0 0 0-2.903-.27c-.867-.016-4.609.217-7.521 1.5q-.17.075-.322.164c-1.657.957-1.762 2.965-1.762 2.972-.033 2.111-1.787 3.248-1.798 3.255-.015.008-2.196 1.794-3.419 2.504-2.565 1.49-4.716 3.201-7.196 4.738-6.563 4.064-9.844 6.096-11.617 7.284-4.659 3.123-9.868 5.97-14.316 9.194-.129.093-.375.274-.745.488-.473.273-1.147.6-2.036.863a12 12 0 0 1-1.88.392c-1.02-.08-3.355-.176-5.475.629-.408.154-.746.32-1.05.494-.416.241-.767.501-1.142.782-.772.579-2.08 1.542-2.64 2.87a.44.44 0 0 0 .035.41" fill="#fff"/><path d="m0 108.937 37.87 21.864 50.009-29.062-.283-.163-.827-.478-9.3-5.37-24.964-14.412-2.495-1.441z" fill="#E6E6E6"/><path d="m49.426 79.563 1.185.683 34.31 19.809-48.063 27.932-34.31-19.81-1.185-.683z" fill="#C9055E"/><path d="m38.692 118.434-.026 9.096-34.31-19.809.025-9.096z" fill="#EEF0FD"/><path d="m37.794 118.365 48.063-27.931-.032 11.193-48.063 27.931z" fill="#E8156B"/><path d="m1.395 97.35 36.395 21.012 48.063-27.931-.272-.157-.795-.46-8.938-5.16-23.992-13.851-2.398-1.385z" fill="url(#a)"/><path d="m37.787 118.353-.032 11.193-36.396-21.013.003-1.048 1.185.683 34.31 19.81.026-9.097-34.31-19.809-1.185-.684.003-1.048z" fill="#E8156B"/><path d="m5.684 96.038 33.724 19.471L82.16 90.665l-.795-.46 1.785-1.036-8.938-5.16L50.22 70.155l-1.785 1.037z" fill="#E6E6E6"/><path d="M5.652 94.163 50.188 68.28l1.098.634L6.75 94.796z" fill="#F29541"/><path d="M6.754 94.796 51.29 68.914 83.083 87.27l-44.536 25.88z" fill="#E59641"/><path d="m40.258 104.301-.024 8.429L8.441 94.374l.024-8.429z" fill="#EEF0FD"/><path d="m39.379 114.602 21.88-12.716.695-.404 19.411-11.281 1.785-1.037.765-.444.03-10.372-9.733 5.656-1.785 1.037-10.588 6.154-.58.336-21.85 12.699z" fill="#FFB55C"/><path d="m5.684 84.753 33.724 19.471L51.03 97.47l12.44-7.23 20.475-11.898-33.725-19.47-20.474 11.897L17.305 78z" fill="url(#b)"/><path d="m39.406 104.225-.029 10.372L5.652 95.126l.003-.972 1.097.634 31.793 18.355.024-8.428L6.776 86.359l-1.097-.633.003-.972z" fill="#FFB55C"/><path d="M42.774 121.182a10 10 0 0 1 .015-.406l.004-.071q.008-.112.018-.222v-.005q.011-.113.025-.225l.009-.069.021-.157.012-.076a6 6 0 0 1 .038-.223q.02-.11.043-.217l.006-.027q.02-.095.043-.189l.018-.069.038-.148.011-.04.01-.034.039-.131.021-.07.065-.198q.034-.098.07-.194l.02-.052.055-.14.01-.023.03-.071.028-.067.047-.104.026-.058q.03-.065.063-.13l.014-.03q.037-.077.078-.152l.002-.004a7 7 0 0 1 .286-.489l.003-.005.013-.018q.056-.087.114-.171l.037-.052a5 5 0 0 1 .135-.184l.004-.004q.067-.087.135-.171l.039-.045q.052-.063.107-.125l.025-.029.02-.022.113-.121.033-.035a5 5 0 0 1 .159-.158l.03-.028.116-.107.054-.048.11-.094.034-.028.02-.017.133-.104.033-.026.17-.124.01-.008.036-.024a4 4 0 0 1 .194-.128l.127-.079.039-.023.05-.03.889-.513.465-.269q.126-.071.252-.137v.058l.021 7.358c.003.881-.453 1.91-1.113 2.653a3.5 3.5 0 0 1-.847.71l.266-.153c.306-.177.596-.424.855-.716a4 4 0 0 0 .244-.3l6.035 3.485-3.45 1.991-5.704-3.293-.017-.032-.02-.039-.019-.037-.104-.212-.02-.043a12 12 0 0 1-.142-.312l-.121-.289a10 10 0 0 1-.106-.275l-.009-.025-.03-.082-.026-.075-.045-.134-.02-.061-.062-.195-.006-.019-.047-.161-.003-.013a9 9 0 0 1-.115-.441l-.016-.072-.033-.149-.017-.085-.027-.136-.007-.035-.008-.048a14 14 0 0 1-.067-.432l-.007-.049q-.016-.119-.028-.236l-.005-.061a13 13 0 0 1-.035-.495l-.007-.202-.001-.032-.001-.231z" fill="#E6E6E6"/><path d="m44.341 120.476.001.032a7 7 0 0 0 .02.44 8 8 0 0 0 .022.256l.006.061q.012.118.027.236l.007.05a11 11 0 0 0 .067.431l.008.049.007.034.044.221.033.15.017.071q.025.11.054.221 0 .006.003.011l.057.21.003.012.048.162.006.019.06.195q.012.03.021.061l.046.134.026.074.03.083.009.025a11 11 0 0 0 .227.564l.016.037.01.022q.055.127.115.252l.02.043.105.212.018.038.02.038.085.16.038.071a10 10 0 0 0 .417.7l.029.045.017.026a12 12 0 0 0 .292.422l.01.013.031.043a11 11 0 0 0 .274.355l.034.042.018.022.147.176.017.019q.082.097.166.19l.015.016.034.036a7 7 0 0 0 .187.199q.073.077.148.15l.026.027.006.007.194.185.05.047.16.143.031.029.016.013q.108.093.217.184l.046.038a10 10 0 0 0 .225.178l.013.009.056.042.102.076.063.045.096.069.066.045.163.11.039.026.042.026.116.073.074.046.19.113.19.106.197.105.039.019.149.074.07.033.124.058.076.034.12.052.079.032.121.049.076.03.133.049.065.024.198.067q.1.033.199.061l.064.019.136.038.076.019a6 6 0 0 0 .328.077l.079.016.127.024.074.014.149.023.052.008q.1.015.2.026l.048.005.153.015.072.006.129.008.079.004.018.001.105.003.08.002.123.001.077-.001q.068 0 .134-.003l.065-.002.192-.012h.006q.1-.008.197-.018l.063-.008.134-.016.075-.011.199-.033.12-.023.076-.016.123-.028.07-.017.143-.038.048-.013q.095-.027.19-.057l.045-.015.142-.049.068-.025.192-.075.113-.048.073-.032.114-.052.07-.034.121-.062.059-.03.177-.098 1.354-.782a4 4 0 0 1-.178.098l-.058.031q-.06.032-.122.061l-.07.034-.113.052-.073.033-.113.048-.073.029-.12.046-.067.024-.143.049-.045.015q-.094.03-.19.058l-.047.013-.143.038-.07.016q-.061.016-.123.028v.001l-.077.015-.12.023-.077.014-.122.019-.074.011-.134.017-.063.007-.197.018-.006.001a6 6 0 0 1-.391.017h-.201l-.08-.002-.123-.005-.078-.003-.129-.009-.073-.006-.152-.015-.048-.004-.2-.026-.052-.008-.15-.024-.073-.013-.207-.041-.123-.026-.08-.019-.124-.031-.077-.02-.136-.038-.064-.018-.198-.062-.01-.003-.188-.064-.066-.023-.132-.05-.076-.029-.122-.049-.078-.033-.12-.052-.077-.034-.124-.058-.07-.033a9 9 0 0 1-.384-.197l-.051-.028-.14-.079-.07-.041-.12-.072-.074-.045-.115-.073-.081-.053-.068-.044-.095-.065-.066-.046-.096-.068-.064-.046-.102-.076-.055-.041-.037-.029-.2-.159-.047-.038a9 9 0 0 1-.217-.184l-.048-.042a13 13 0 0 1-.436-.409l-.147-.149q-.03-.029-.056-.058l-.132-.141-.048-.053-.167-.189-.016-.02a9 9 0 0 1-.307-.376l-.054-.07-.112-.149-.042-.056q-.075-.103-.147-.208l-.027-.039q-.06-.086-.117-.174l-.047-.072-.096-.153-.047-.075q-.053-.085-.102-.171l-.044-.073-.127-.227-.038-.072-.084-.159-.034-.066-.005-.01-.104-.212-.022-.043-.114-.252q-.015-.03-.026-.06l-.102-.24-.02-.05-.105-.274-.039-.107-.072-.209-.02-.061-.061-.195-.006-.019a10 10 0 0 1-.108-.385l-.003-.01-.054-.221-.016-.071-.033-.149-.018-.086-.026-.135-.015-.083a10 10 0 0 1-.068-.431l-.007-.051-.027-.235-.006-.062-.016-.175-.005-.081-.01-.162-.004-.077-.007-.2v-.033l-.002-.232.001-.066a8 8 0 0 1 .015-.406l.004-.071q.008-.112.018-.223v-.004q.011-.112.025-.225l.008-.069.022-.157.012-.076.026-.158.011-.065q.02-.109.044-.218l.006-.026a8 8 0 0 1 .231-.838l.014-.041q.033-.098.07-.195l.02-.051.055-.141.04-.093.028-.067.046-.104.027-.058.062-.13.015-.03a8 8 0 0 1 .204-.379l.03-.05a5 5 0 0 1 .262-.41l.037-.052.12-.165.019-.024.135-.17.039-.046q.052-.063.107-.124l.045-.051.113-.121.033-.035.15-.15.04-.036q.038-.038.08-.074l.035-.033.054-.048.11-.094.054-.045.133-.105.033-.025a5 5 0 0 1 .17-.124l.046-.032a6 6 0 0 1 .321-.207l.09-.053-1.047.604-.307.177-.051.03-.039.024-.127.078-.062.04-.132.089q-.018.011-.035.024l-.01.007-.171.124-.033.026-.133.105-.02.016-.034.029-.11.094-.054.048-.115.106-.031.029-.008.008-.15.149-.034.036q-.057.059-.113.121l-.02.022-.025.029-.107.124-.039.046-.135.17-.004.005-.014.019-.12.164-.038.053-.114.17-.013.019-.003.004a8 8 0 0 0-.286.49l-.002.004q-.04.075-.078.151l-.015.03-.062.131-.027.057-.075.171-.03.071-.009.023-.055.14-.02.052-.07.195-.014.04-.051.157-.021.07-.039.132-.01.033-.01.041-.04.148-.017.069q-.023.093-.043.189l-.006.026a7 7 0 0 0-.093.517l-.022.156-.008.07q-.015.111-.025.224v.005l-.018.222-.004.072-.008.16-.003.079-.004.166z" fill="url(#c)"/><path d="M47.093 124.601c2.445 4.237 7.243 6.047 10.713 4.044s4.301-7.064 1.855-11.301c-2.446-4.236-7.243-6.047-10.714-4.043s-4.301 7.063-1.855 11.3" fill="url(#d)"/><path d="M52.983 115.492q1.16.363 1.927 1.694.501.866.51 1.843a4.8 4.8 0 0 1-.33 1.837q-.155.517-.075.903.081.385.408.951l-1.626.939q-.546-.959-.576-1.532t.28-1.6q.169-.624.143-1.218a2.5 2.5 0 0 0-.353-1.161q-.363-.627-.84-.826-.474-.198-.978.092-.413.24-.528.705-.114.467.215 1.05l-1.587.916-.035-.034q-.773-1.3-.451-2.414t1.484-1.785q1.253-.723 2.412-.36m3.082 8.329-1.643.949.985 1.705 1.643-.949z" fill="#fff"/><path d="M57.16 84.535a6.9 6.9 0 0 0 .486 2.574c.4.997.96 1.685 1.5 2.352a13.3 13.3 0 0 0 2.118 2.08v10.354l.694-.404c.39-2.012.675-3.435 1.62-4.89q.031-.052.067-.104a9 9 0 0 1 1.354-1.577.13.13 0 0 0 .009-.18c-1.24-1.378-2.298-2.566-3.165-3.536l-.689-.768c-1.907-2.124-2.431-2.66-2.829-3.312a12 12 0 0 1-1.134-2.492z" fill="#CFDCFF"/><path d="m56.57 82.054.047.338c.128.616.29 1.346.541 2.128q.014.048.032.098c.264.801.622 1.655 1.133 2.491.398.652.922 1.189 2.83 3.312.973 1.083 2.264 2.538 3.853 4.304a.13.13 0 0 1-.01.18 9 9 0 0 0-1.42 1.682c-.96 1.479-1.24 2.925-1.64 4.992-.084.439-.147.823-.208 1.198-.135.833-.26 1.631-.59 2.928a35 35 0 0 1-.31 1.137l-.003.004a1.6 1.6 0 0 0-.256.582 1.66 1.66 0 0 0 .061.88q.233-.457.466-1.036c.155-.387.305-.814.438-1.279.248-.862.198-1.016.518-2.649l.06-.304c.365-1.858.573-2.847 1.078-4.059a13.4 13.4 0 0 1 1.382-2.534l.032-.044.03-.044.049-.067.165-.224.029-.035q.013-.02.027-.036l.055-.071.096-.123.045-.054.044-.053.021-.027.021-.026.066-.078.065-.076.043-.049q.098-.114.194-.22l.052-.058.104-.111.051-.054.05-.053.045-.046.062-.063.017-.017.036-.04a.5.5 0 0 0 .114-.269.54.54 0 0 0-.086-.36v-.002q-.007-.007-.011-.015l-.01-.015q-.014-.018-.026-.038l-.027-.038-.035-.053-.062-.09-.065-.092-.045-.062v-.001l-.037-.052a14 14 0 0 0-.263-.364 22 22 0 0 0-.299-.393 18 18 0 0 0-1.572-1.781l-.063-.062-.063-.062-.062-.062q-.25-.242-.504-.48l-.001-.002-.127-.12-.26-.248-.133-.127-.067-.066-.101-.1a24 24 0 0 1-.92-.948v-.001l-.143-.155-.072-.08a22 22 0 0 1-.376-.428c-.242-.284-.462-.538-.662-.783l-.195-.239a12 12 0 0 1-.568-.764l-.057-.086a9 9 0 0 1-.59-1.036 10.6 10.6 0 0 1-.916-2.83l-.033-.479c-.412-.01-.735.01-.993.048z" fill="#CED8EF"/><path d="m57.637 81.992.033.479q.031.174.07.36c.153.721.408 1.572.846 2.47a9 9 0 0 0 .59 1.036l.057.086c.175.258.362.507.568.764l.195.24c.201.243.421.499.663.782q.195.225.376.428l.072.08.141.155.001.001a23 23 0 0 0 .92.948l.1.1.069.066.132.127.26.248q.066.06.127.12h.001a63 63 0 0 1 .566.544l.063.062.063.062.063.063c.464.464.944.99 1.51 1.718a22 22 0 0 1 .599.809l.044.063.065.093.061.089q.02.026.036.052l.053.077.01.015.01.016.002.003a.5.5 0 0 1 .085.357.5.5 0 0 1-.056.182.5.5 0 0 1-.094.128l-.016.017-.062.064-.045.046-.05.052-.052.054-.103.112-.052.057q-.097.106-.195.22l-.043.049-.065.077-.064.078-.022.025-.022.027q-.023.026-.043.054-.023.025-.044.054l-.098.122-.055.071-.027.036-.027.035a11 11 0 0 0-.246.335q-.014.023-.032.044a13.4 13.4 0 0 0-1.382 2.535c-.531 1.276-.733 2.305-1.138 4.362-.32 1.633-.27 1.787-.518 2.649a13 13 0 0 1-.903 2.316v.001c.043.113.103.228.188.337.416.535 1.23.703 1.728.422.378-.212.488-.635.615-1.084l.024-.087c.275-.953.643-1.877.916-2.831.225-.789.72-1.879 1.709-4.06.244-.539.499-1.085.989-1.699q.065-.082.125-.153l.07-.08c.253-.284.444-.438.648-.635.08-.077.162-.162.25-.265.72-.837.911-1.769 1.066-2.525.12-.584.158-1.14.146-1.651a8 8 0 0 0-.115-1.153 8 8 0 0 0-.376-1.4c-.135-.362-.358-.756-.705-1.278a65 65 0 0 0-1.273-1.793c-.36-.497-1.183-1.617-2.985-3.849l-.124-.154-.09-.11-.143-.176-.15-.184-.05-.063-.079-.096-.279-.341-.087-.106-.127-.155c-.11-.136-.211-.258-.293-.358-2.202-.556-3.638-.76-4.595-.788" fill="#EEF0FD"/><path d="M64.778 114.306c-.035.144-.12.488-.432.706-.325.227-.696.177-.886.151-.242-.033-.537-.128-.986-.468a5 5 0 0 1-1.13-1.217c-.545-.816-.286-.643-1.017-2.063-.307-.595-.706-1.314-.886-2.225a1.7 1.7 0 0 1-.022-.684c.07-.375.275-.638.684-1.166.127-.163.222-.269.375-.36.12-.071.239-.11.342-.132a1.55 1.55 0 0 0-.256.581c-.016.075-.093.471.062.881q.062.173.188.338c.415.535 1.23.703 1.727.422.378-.212.488-.635.615-1.084l.025-.087a.8.8 0 0 1 .036.197c.008.154-.035.269-.05.317-.08.247-.035.493.04.893.16.865.903 2.442.964 2.569.11.234.266.407.524 1.257.068.224.18.778.083 1.174" fill="#212121"/><path d="M72.949 94.775c-.47 1.136-.668 1.153-1.836 3.153-.954 1.634-.659 1.343-2.16 4.082-.881 1.608-1.032 1.798-1.123 2.354-.036.224-.068.538-.203.883-.06.156-.142.318-.255.48-.158.228-.427.616-.864.653-.593.049-.993-.593-1.017-.634a1 1 0 0 1-.078-.151 4.4 4.4 0 0 0 .5-.713c.469-.83.546-1.602.576-1.871.048-.426.419-1.839 1.15-4.573.081-.078.163-.163.251-.265.72-.837.911-1.77 1.066-2.525.12-.584.158-1.14.146-1.651.088-.15.181-.29.283-.431a7.8 7.8 0 0 1 1.301-1.4.26.26 0 0 0 .04-.354 123 123 0 0 0-6.765-8.215c.806.316 1.805.518 2.855.264.68-.164 1.635-.58 1.96-1.08q.307.41.566.742c.958 1.229 1.844 2.512 2.808 3.736.353.449.771.971 1.101 1.793a6.7 6.7 0 0 1 .454 2.375c.004.342-.004 1.534-.756 3.348" fill="#EEF0FD"/><path d="M67.636 98.438c-.732 2.734-1.103 4.146-1.151 4.572-.03.27-.108 1.041-.576 1.872a4.4 4.4 0 0 1-.5.712c-.213-.489-.052-.968-.018-1.067a1.6 1.6 0 0 1 .341-.573l.027-.032a.46.46 0 0 0 .093-.221l.048-.335a24.6 24.6 0 0 1 1.018-4.214l.07-.08c.252-.285.444-.437.647-.635" fill="#CED8EF"/><path d="M67.79 81.426a5.6 5.6 0 0 0-1.076-.335 3 3 0 0 0-.51-.059 7 7 0 0 0 .75-.844q.435.663.836 1.237" fill="#EEF0FD"/><path d="M67.635 105.459c-.008.413-.157.716-.197.805-.142.315-.132.969-.105 2.265.019.919.032 1.029 0 1.805-.024.565-.061.976-.317 1.396-.145.238-.354.581-.749.696-.682.199-1.326-.458-1.391-.528-.346-.363-.424-.757-.557-1.43-.032-.162-.23-1.021-.058-1.833.017-.082.072-.318.058-.634-.012-.256 0-.346-.018-.509-.035-.33-.1-.732-.098-1.362.001-.201.012-.469.014-.792a.97.97 0 0 1 .32-.712 3.3 3.3 0 0 1 1.226-.704l-.027.032a1.6 1.6 0 0 0-.342.573c-.034.099-.194.578.018 1.067q.032.076.078.152c.024.04.424.683 1.017.633.436-.036.706-.425.864-.653.113-.162.194-.323.255-.479q.01.093.009.212" fill="#212121"/><path d="m62.227 82.781.293.358.127.155.087.105.05.064.358.437.15.184.142.176.09.11.124.154c1.803 2.231 2.625 3.352 2.985 3.849.544.748.959 1.323 1.273 1.793a37 37 0 0 1 1.83 1.766c.058.06.05.156-.016.206a4 4 0 0 0-.732.706c.06.348.104.736.114 1.153q.13-.222.284-.431c.43-.595.89-1.054 1.3-1.4a.26.26 0 0 0 .041-.353 124 124 0 0 0-6.765-8.215 7.3 7.3 0 0 1-1.371-.723l-.257-.066z" fill="#CED8EF"/><path d="M65.723 65.336a.7.7 0 0 1 .232.482l.001.005v.015c.025.644.172 1.275.438 1.862.735 1.618.986 3.657.986 3.657l1.043 1.357c.025.033.047.096.083.179.117.272.185.532.222.763.114.689.253 1.373.442 2.045l.099.348q.38 1.336.779 2.615a6.4 6.4 0 0 1-.123.916c-.129.611-.243.706-.318 1.114-.175.956.207 1.768.307 1.967.136.269.641 1.27 1.248 1.23.742-.051 1.124-1.626 1.2-1.94a4.4 4.4 0 0 0 .048-1.881 4.45 4.45 0 0 0-.735-1.714l-.033-.013-.34-2.809a38 38 0 0 1-.108-1.713c-.028-.697-.023-1.089-.252-1.562-.156-.323-.34-.519-.475-.67-.233-.258-.772-1.043-1.85-2.613-.919-1.336-.79-1.275-1.21-1.835l-.144-.189a12 12 0 0 0-.93-1.047l-.097-.096a18 18 0 0 0-.308-.29z" fill="#F7B8A7"/><path d="m58.328 85.555 7.625 5.365 3.502-1.623 3.035-1.406.386-.18 5.745-2.662-4.82-3.392-2.805-1.973-.236.109-4.407 2.042-.4.186-3.16 1.465-.288.133z" fill="#666"/><path d="m66.176 89.079-5.016-3.53 9.234-4.28 5.016 3.53z" fill="#EEF0FD"/><path d="m79.451 75.77-.834 9.285-5.744 2.663-.387.179-3.034 1.406-3.503 1.623.629-6.996.205-2.29.7-.323 3.275-1.518.235-.11z" fill="#DEDEDE"/><path d="M54.008 81.029q.033.06.071.116c.312.338.73.668 1.274.836.535.164 1 .113 1.214.082l.07-.011c.258-.039.582-.06.993-.048 1.01.03 2.55.254 4.96.881l.103.068a7.2 7.2 0 0 0 1.267.655c.746.292 1.655.486 2.618.313l.206-2.289.7-.324a5.5 5.5 0 0 0-.77-.215 3 3 0 0 0-.511-.06c-.328-.01-.752.011-1.677.002a52 52 0 0 1-1.286-.028l-4.427-1.293-.959-.219a16 16 0 0 0-1.578-.151 12.1 12.1 0 0 0 1.791-6.341s.205-4.005-1.847-4.6a2.3 2.3 0 0 1-.42.423c-.1.08-.401.306-.625.713a2.3 2.3 0 0 0-.26.843 88 88 0 0 0-.388 4.081l-.041.615c-.057.82-.101 1.31-.197 1.782-.199.981-.411 1.384-.475 2.355-.054.823-.087 1.309.194 1.814" fill="#F7B8A7"/><path d="M57.488 76.72a12 12 0 0 1-1.21 2.628c.591.028 1.12.084 1.579.151l.959.22 4.426 1.293c.35.012.786.024 1.286.028.925.008 1.35-.014 1.677-.002q.07-.067.137-.135a7 7 0 0 0 .718-.851c.18-.25.22-.574.108-.86l-.043-.115a13 13 0 0 1-.47-1.516c-.14-.588-.303-1.278-.279-2.199.018-.68.036-1.347.384-2.082.167-.353.305-.498.441-.912a3.5 3.5 0 0 0 .173-1.005s-.251-2.04-.986-3.658a4.9 4.9 0 0 1-.437-1.861l-.001-.012v-.003l-.001-.006a.7.7 0 0 0-.274-.517l-.106-.092a15 15 0 0 0-.342-.278l-.425-.303q-.084.188-.194.393c.219.147.349.338.349.338.094.192.187.436.237.71.042.225.055.47.016.725-.168 1.129-1.56 1.42-2.101 1.584-.469.142-.974.16-1.473.074-1.224-.207-2.398-1.032-2.833-2.161a2.9 2.9 0 0 1-.185-1.171q-.215.289-.375.51c-1.246 1.7-1.72 2.397-2.02 2.771 2.051.596 1.847 4.6 1.847 4.6a12.1 12.1 0 0 1-.582 3.713" fill="#8AC926"/><path d="M56.281 79.337c.591.029 1.12.085 1.579.152l.959.219a3.9 3.9 0 0 1-.675-.933.34.34 0 0 1-.024-.25l.013-.048.047-.169.013-.044.06-.21.06-.209.019-.06.042-.145.023-.076.038-.13q.013-.038.024-.078l.038-.126.024-.076.103-.333.022-.068.043-.136.02-.062.045-.142.018-.057.047-.147.016-.05.052-.156.013-.04.056-.167.01-.029.065-.195c.609.205.817.102 1.08.145a1.65 1.65 0 0 1-.613-.364 1.67 1.67 0 0 1-.493-.945l-.016-.02-.044-.054a8 8 0 0 1-.872-1.338 12.1 12.1 0 0 1-.582 3.713 12 12 0 0 1-1.21 2.628" fill="#8AC926"/><path d="M65.145 63.649a7 7 0 0 1-.343.977 5.7 5.7 0 0 1-.578 1.01 6 6 0 0 1-.483.589.72.72 0 0 1-.398.217l-.143-.01-.032-.002-.032-.003-.033-.003-.026-.002a7 7 0 0 1-.822-.13l-.037-.009-.05-.012-.052-.013-.052-.013-.089-.023-.01-.003-.052-.015-.053-.015-.053-.016-.199-.064-.056-.02-.182-.067-.07-.028-.175-.074a6 6 0 0 1-.6-.308l-.04-.024a6 6 0 0 1-.211-.133l-.011-.009-.008-.005-.03-.024-.015-.011-.005-.004-.011-.009-.012-.01-.025-.018-.179-.145-.032-.026-.067-.057-.06-.05-.185-.162-.028-.024-.056-.051a11 11 0 0 1-.428-.413l-.003.004c-1.175-1.4-1.062-3.581-.694-5.327a3.072 3.072 0 0 1 3.984-2.28l.064.02a4.13 4.13 0 0 1 2.762 3.272c.031.196.065.414.093.651.093.775.128 1.755-.183 2.872" fill="#F7B8A7"/><path d="M65.209 66.786c-.17 1.128-1.56 1.42-2.103 1.584a3.2 3.2 0 0 1-1.472.074c-1.224-.208-2.398-1.033-2.833-2.162a2.9 2.9 0 0 1-.185-1.17l.501-.678.003-.004q.142.145.285.28c.061.18.152.386.29.597l.024.036.043.062q.059.081.122.158l.023.027.024.028.03.032a3 3 0 0 0 .185.187l.033.03.1.086.033.026q.053.042.108.082l.036.025.037.026.037.024.037.024.076.047a3 3 0 0 0 .156.086l.043.022.037.018a2 2 0 0 0 .246.105 2 2 0 0 0 .172.058l.04.012.084.023.035.01q.01 0 .018.004l.078.017.056.01.035.007a2 2 0 0 0 .133.019 2 2 0 0 0 .223.017 2.5 2.5 0 0 0 1.076-.2l.026.002.034.003.031.003.033.002.03.002.112.008a.72.72 0 0 0 .398-.218 5.8 5.8 0 0 0 .867-1.205c.219.147.349.338.349.338.17.35.338.868.254 1.436" fill="#F7B8A7"/><path d="M63.073 66.435a2.5 2.5 0 0 1-.645.18c-1.075.147-2.173-.425-2.735-1.287a2.7 2.7 0 0 1-.29-.597c.45.425.866.737.866.737 1.075.712 2.168.907 2.804.967" fill="#E0968A"/><path d="M52.682 72.787c.315.87.968 1.727 1.794 2.297.623.431 1.345.699 2.094.683a3 3 0 0 0 1.234-.293c.459-.215.865-.53 1.221-.89l.053-.054c.91-.943 1.48-2.167 1.725-2.693a9 9 0 0 0 .82-3.377 11 11 0 0 0-.142-2.382c-.1-.605-.237-1.163-.384-1.656a2.455 2.455 0 0 1 1.16-2.851 19 19 0 0 0 1.817-1.182.803.803 0 0 1 1.237.382l.005.015.011.099c.084.759.104 1.703-.195 2.773a7 7 0 0 1-.343.977l.426.304q.177.14.341.278l.107.091.04.036a11 11 0 0 1 .515.473l.096.096c.379.377.685.733.93 1.047.044-.67.056-1.394.016-2.164-.141-2.775-.143-5.023-1.663-6.825-.456-.54-1.366-1.423-2.764-1.857-.534-.166-2.433-.755-4.103.302q-.153.097-.295.207a4.8 4.8 0 0 0-1.11.958c-1.265 1.488-1.554 3.71-.821 5.863-.506 1.476-1.574 2.126-2.526 3.555-.382.574-2.198 3.298-1.296 5.788" fill="#7A3B18"/><path d="M65.338 60.872a.95.95 0 0 0-.585-.225c-.227-.006-.376.097-.748.326-.949.582-.8.426-1.19.7-.281.198-.856.602-1.2 1.028-.348.43-.51.942-.574 1.431a2.455 2.455 0 0 1 1.226-2.574 19 19 0 0 0 1.818-1.182.803.803 0 0 1 1.236.382l.005.016z" fill="#E0968A"/><path d="m69 55.602.576-.335A21 21 0 0 0 72 53.617l-.283-.164z" fill="#EEF0FD"/><path d="m86.967 48.91-.003 1.08-.012 4.08-.01 3.618c-.001.454-.112.816-.303 1.069q-.13.173-.308.275l-1.835 1.066.013-.008.02-.013.004-.002.022-.015.07-.053.022-.02.012-.011a1 1 0 0 0 .15-.17l.014-.02.037-.056.012-.02a1 1 0 0 0 .077-.154l.014-.033.011-.03.002-.004.01-.03.028-.087q.008-.024.013-.047l.011-.045.008-.031.017-.093.006-.04.001-.006.006-.04.006-.054.003-.038.007-.087.001-.029v-.023l.001-.03v-.047l.017-5.756.009-3.022-.001-.063-.002-.057-.001-.032-.005-.08-.003-.042-.008-.077-.005-.043-.007-.054a2 2 0 0 0-.02-.13l-.012-.058-.002-.013-.02-.09-.012-.055-.018-.072-.014-.054-.025-.087-.01-.03q-.008-.032-.018-.062l-.02-.06-.006-.02-.018-.05-.017-.05-.014-.036-.034-.089-.016-.038a4 4 0 0 0-.096-.222l-.017-.034-.083-.167-.032-.06-.014-.026-.049-.088-.012-.022a3 3 0 0 0-.08-.134l-.055-.086-.023-.035a5 5 0 0 0-.31-.421l-.013-.016-.03-.034-.052-.06-.016-.019-.038-.043-.045-.048-.002-.002-.084-.086-.016-.017-.074-.071-.018-.018h-.001l-.093-.084-.019-.017-.075-.063-.035-.028-.062-.048-.037-.029-.062-.044-.037-.027-.068-.044-.032-.021-.1-.062-14.056-8.114-.067-.038-.02-.01-.05-.026-.008-.004-.01-.005-.063-.03-.004-.002-.008-.004-.02-.009q-.004 0-.007-.003l-.028-.012-.02-.008-.038-.015-.02-.008-.042-.016-.017-.005-.027-.009-.012-.004q-.01-.002-.017-.006l-.011-.003-.075-.02q-.034-.01-.068-.016l-.007-.002-.043-.009-.04-.007h-.004a2 2 0 0 0-.142-.015l-.023-.001h-.064l-.06.001-.014.001-.047.004-.012.002q-.028.002-.055.008l-.012.002-.043.008-.014.004-.052.013-.014.005-.036.011-.014.005-.04.016-.01.003-.047.022-.011.005-.056.03.011-.006 1.837-1.067.011-.007.007-.004.037-.019.012-.006.047-.02.002-.002.007-.003.04-.015.014-.005.046-.015.004-.001.052-.014q.008 0 .014-.003l.043-.009.008-.001h.004l.055-.009.013-.001.046-.004.01-.001h.004l.06-.002h.065l.009.001h.004l.067.005.014.001.07.01h.002l.086.015.006.002q.042.008.084.02l.007.002.006.001.046.014.01.003.057.019.016.005.042.015.021.008.038.015.011.005.01.004.054.024.01.005.066.03.017.01.05.026.02.01.066.037 14.057 8.115.1.061.032.021.167.115.038.029.061.048.035.028.069.059.025.021q.048.04.093.084l.019.018.06.058.014.014.016.016.084.086.002.003.083.09.016.019.015.016.037.045.088.106.038.047.007.009.07.094.004.005.065.09.008.012.02.03.053.078.023.035.017.026.038.06.013.021.058.097.007.012.014.026.05.087.016.03.01.02.048.092.005.009.038.078.013.026.015.033.043.095.01.02.002.008.046.108.011.029.02.051.015.038.013.036.035.1.006.019.002.005.046.148.02.065.005.021.014.055.018.071.013.056.008.038.01.051.003.014.021.114q0 .01.003.02.008.045.013.092l.002.016.004.039.009.08q0 .021.004.042l.004.08.002.037z" fill="#CED8EF"/><path d="m85.119 49.977-.002.656-.004 1.564v.164l-.019 6.394v.047l-.001.03v.023l-.002.03-.006.086-.004.038-.011.094-.001.006-.007.04q0 .01-.003.017l-.014.076-.007.03-.011.046-.013.047-.012.039a1 1 0 0 1-.04.112l-.014.034a1.2 1.2 0 0 1-.125.23q-.008.008-.014.02l-.04.05-.019.024-.02.023a1 1 0 0 1-.071.072l-.013.012-.044.037-.07.05-.003.002-.02.013-.026.016c-.381.221-.909.19-1.49-.146l-10.98-6.339-.282-.163-2.718 2.149.01-3.712-.087-.05c-.56-.324-1.068-.87-1.442-1.498-.4-.67-.648-1.434-.646-2.12v-.104l.007-2.332.018-6.342c.001-.66.235-1.125.61-1.344l.02-.01.036-.02.012-.005.047-.022.01-.003.02-.008.02-.008.007-.002.007-.003.018-.006.014-.004.004-.001.014-.005.051-.013.015-.004a1 1 0 0 1 .11-.018l.012-.002h.004l.043-.004h.013l.03-.002.03-.001h.045l.02.001h.014l.005.001h.003l.055.004.018.002.025.003.026.003.018.003h.004l.04.008.044.008.007.002.033.007.034.008.017.005.006.002.006.001.046.013.011.004h.002l.028.009.026.01.017.005.041.015.021.008.038.015.02.009.014.005.014.006.007.003.02.01.006.002.003.001.002.001h.001l.017.009.014.006h.001l.002.002h.002l.028.014.009.005.004.002.004.002.026.013.025.013.017.01h.002l.033.019.034.018 7.362 4.251 6.694 3.865.1.06.032.022.068.044.037.027.062.044.037.029.062.048.002.002.033.026.035.029.003.002.031.027.025.022.01.008.027.025.018.016.038.034.001.002.018.017.074.071.016.017q.044.042.084.086l.002.002.083.091.016.019.052.06.03.035.012.015.084.104.039.051a4 4 0 0 1 .135.188l.053.078.023.035.054.086.014.022a4 4 0 0 1 .124.214l.018.034.003.005.013.024.016.031.034.065.066.136.022.048.02.045v.003l.01.02.04.096.004.01.002.005.002.004.012.03.034.089.007.017.007.02.017.049.025.069.02.06.015.05.003.01v.001l.01.031q.005.023.012.044l.012.043.032.126.013.055.019.09.002.014a2 2 0 0 1 .024.134l.015.108.005.038v.005l.005.053.001.005v.003l.002.015v.01l.003.032.003.04.002.04.001.023v.009l.002.057z" fill="#EEF0FD"/><path d="M78.344 48.516v1.572l2.456 2.374v.03l-2.456-.488v1.578l3.933.42v-1.366z" fill="url(#e)"/><path d="m75.763 44.865-1.517-.877 2.212 9.4 1.517.876z" fill="url(#f)"/><path d="M73.747 47.445v-1.572l-3.911-.408v1.366l3.911 4.108v-1.572l-2.434-2.361v-.03z" fill="url(#g)"/><path d="M96.843 83.445q.006-.13.02-.263l.002-.023a7 7 0 0 1 .052-.398l.023-.146.034-.177.03-.151.03-.135a10 10 0 0 1 .227-.819l.035-.108q.039-.12.082-.24l.026-.075q.057-.158.118-.318l.038-.095q.045-.116.094-.233l.052-.125.088-.205.069-.152a21 21 0 0 1 .342-.719 22 22 0 0 1 .426-.806l.073-.132q.106-.19.217-.38l.016-.027.008-.014a27 27 0 0 1 .424-.7l.022-.036.205-.322.081-.125a37 37 0 0 1 .387-.582l.084-.123.181-.261.06-.087.103-.145.173-.243.116-.16.166-.226.124-.167.164-.219.131-.17q.08-.108.164-.214l.103-.133q.158-.203.319-.405l.075-.095.477-.586.331-.396.088-.104q.2-.236.401-.468l.126-.143.2-.228.139-.157.196-.218.144-.159.194-.213.146-.158.196-.21.145-.156.202-.212.141-.148.212-.22.131-.134.241-.245.103-.105a56 56 0 0 1 .633-.625l.07-.069.29-.279.006-.006.285-.27.069-.064.287-.267.026-.024.265-.242.351-.315.038-.034.253-.222.066-.058.277-.239.048-.041.241-.204.063-.052.271-.226.053-.043.235-.19.057-.046a37 37 0 0 1 .551-.431l.05-.039.258-.195.059-.043.225-.166.041-.03.25-.178.059-.041.223-.154.03-.021.241-.162.058-.037q.113-.075.224-.145l.016-.01.286-.176q.115-.07.227-.134.155-.09.308-.172l.089-.047a11 11 0 0 1 .615-.306l.05-.022a12 12 0 0 1 .62-.257l.193-.07.074-.026q.131-.045.263-.086l.048-.014a9 9 0 0 1 .338-.095l.094-.024.137-.032.086-.02.153-.03.068-.014q.109-.02.218-.037l.014-.002.191-.026.067-.008a6 6 0 0 1 .345-.03l.07-.004.172-.006h.021l.191-.001h.054l.198.008.08.006q.109.007.216.02l.058.005q.128.016.254.037l.056.01.197.04.066.015q.12.03.239.062l.019.006a5 5 0 0 1 .464.163l.043.018a5 5 0 0 1 .529.263l-2.447-1.422-.053-.03-.035-.019-.17-.09-.053-.026a5 5 0 0 0-.219-.099l-.01-.005-.033-.012-.185-.072-.065-.022a5 5 0 0 0-.213-.069l-.016-.005-.004-.001a5 5 0 0 0-.238-.062l-.066-.015a5 5 0 0 0-.198-.04l-.039-.008-.016-.002a5 5 0 0 0-.255-.037l-.058-.006-.215-.02q-.021 0-.041-.003l-.04-.002-.198-.008h-.054q-.095-.003-.191 0h-.02l-.139.005-.034.002q-.034 0-.07.004l-.133.01-.074.006-.138.014-.066.008-.191.026-.015.002h-.002l-.216.037-.067.013-.154.031-.086.02q-.068.014-.136.032l-.095.024-.099.026-.027.007-.211.062-.049.014a9 9 0 0 0-.263.086l-.074.026-.193.07-.097.037-.174.07-.053.021-.043.019-.252.11-.051.022q-.149.069-.301.144l-.08.04-.234.121-.089.047a13 13 0 0 0-.821.483l-.016.01q-.111.07-.224.145l-.057.037-.241.161-.031.022-.223.154-.059.04-.25.18-.04.029-.226.166-.059.043a55 55 0 0 0-.537.41l-.057.045-.321.255-.236.191-.052.043-.273.226-.061.051-.242.205-.048.04-.277.24-.066.058-.252.222-.039.034-.282.253-.069.062-.265.242-.026.024-.286.266-.071.066-.283.269-.007.006-.29.279-.07.069-.285.278-.003.004-.345.343-.102.104-.242.246-.131.135-.212.219-.142.148-.2.212-.146.156-.342.368-.194.212-.144.16-.195.218-.14.157-.2.228-.1.113-.026.03q-.201.233-.401.468l-.088.105a42 42 0 0 0-.808.98l-.075.095-.32.406-.057.073-.045.059-.164.215-.13.17-.164.219-.124.166-.166.227-.116.16q-.088.121-.174.244l-.09.126-.012.018-.061.087-.18.26-.085.124a37 37 0 0 0-.386.581l-.082.126-.035.055-.17.267-.021.035a28 28 0 0 0-.424.7l-.009.015-.002.003-.013.023q-.111.19-.217.38l-.074.133-.149.273-.034.063-.055.105a20 20 0 0 0-.281.553l-.039.079-.05.106q-.038.077-.073.155l-.087.19-.068.153-.026.058-.062.147-.053.124-.094.235-.037.094-.007.015q-.058.152-.112.302l-.026.075-.068.197-.014.043-.034.108a11 11 0 0 0-.097.319l-.025.085-.026.1a9 9 0 0 0-.11.45l-.01.049-.02.103-.033.176q-.014.074-.024.147l-.025.171-.009.058-.018.169-.002.022a6 6 0 0 0-.028.586c.004 1.678.78 2.824 2.014 3.541l2.447 1.422c-1.234-.717-2.009-1.863-2.014-3.54q0-.13.006-.26z" fill="#fff"/><path d="M112.515 63.556c5.355-3.09 9.709-.61 9.727 5.543.017 6.152-4.309 13.646-9.663 16.737s-15.733 4.088-15.75-2.065c-.018-6.152 10.332-17.124 15.686-20.215" fill="#EEF0FD"/><path d="M136.19 146.372c11.416 0 20.671-5.343 20.671-11.934s-9.255-11.934-20.671-11.934-20.67 5.343-20.67 11.934 9.254 11.934 20.67 11.934" fill="#fff"/><path d="M166.469 81.793c0-3.226-.505-6.334-1.44-9.25l-.044.057a30.2 30.2 0 0 0-4.782-9.06c-5.534-7.194-14.228-11.83-24.006-11.83-1.497 0-2.968.11-4.405.32l-.048.007a30.15 30.15 0 0 0-15.443 7.13 30.3 30.3 0 0 0-3.984 4.211 30.14 30.14 0 0 0-6.391 18.604q0 .511.017 1.045c.264 8.36 3.596 20.825 8.845 31.388 5.496 11.058 13.094 20.033 21.471 20.033 6.162 0 11.885-4.856 16.658-11.827 8.173-11.94 13.552-30.083 13.552-40.639l-.001-.065z" fill="url(#h)"/><path d="M127.025 96.324c1.818-1.05 1.818-4.454 0-7.603s-4.766-4.851-6.584-3.801c-1.819 1.05-1.819 4.453 0 7.602s4.766 4.852 6.584 3.802" fill="#F3F5FF"/><path d="m152.603 58.497-.002-.035-.003-.073-.004-.085-.006-.069-.01-.125-.013-.118-.007-.06-.002-.018-.028-.202-.002-.008-.007-.042-.026-.153-.008-.035-.016-.082-.019-.092-.014-.06-.021-.089-.014-.062-.023-.088-.023-.087-.01-.04-.038-.126-.02-.07-.005-.017a6 6 0 0 0-.067-.209l-.002-.007-.014-.04-.056-.16-.012-.032-.028-.073-.034-.093-.027-.067-.032-.077-.021-.053-.05-.118-.025-.057-.008-.018a5 5 0 0 0-.089-.196l-.005-.01-.03-.063-.068-.14-.013-.026-.063-.121-.049-.096-.016-.03-.034-.06-.089-.16-.038-.066-.025-.043-.046-.077-.078-.128-.07-.11-.081-.125-.027-.043-.062-.09-.047-.068-.129-.18-.017-.024-.003-.004-.029-.038-.141-.185-.009-.013-.106-.13-.046-.057-.005-.006a7 7 0 0 0-.156-.183l-.005-.005-.038-.043-.114-.126q-.008-.007-.016-.017l-.067-.07-.082-.086-.026-.025-.074-.074-.07-.069q-.017-.014-.034-.032l-.082-.076-.061-.056-.042-.037-.083-.072-.054-.047-.052-.043-.081-.066-.045-.037-.067-.05-.076-.059-.033-.025-.091-.065-.065-.046-.018-.013-.17-.112-.005-.003-.163-.1-.04-.023-9.144-5.28-.117-.065-.01-.005-.017-.01-.146-.075-.008-.004-.141-.066-.013-.006-.018-.008-.136-.058-.007-.002h-.001l-.144-.055-.016-.006-.014-.005-.14-.045-.007-.003-.014-.004-.152-.042h-.003l-.147-.033-.016-.003-.017-.004-.041-.007-.092-.015-.026-.003-.022-.003-.044-.005-.047-.005-.044-.004-.022-.002h-.022a2 2 0 0 0-.144-.006h-.039l-.07.002-.028.001-.096.007h-.009a2 2 0 0 0-.212.031l-.014.003h-.004l-.129.031-.02.006a2 2 0 0 0-.121.038l-.01.003-.018.007-.129.052-.031.014-.051.025-.025.013-.074.04-.001.001-11.051 6.422.009-.005c-.731.42-1.186 1.316-1.19 2.588-.007 2.551 1.803 5.688 4.023 6.97l9.145 5.279c1.149.664 2.192.704 2.931.236l-.062.04 11.051-6.423a2 2 0 0 0 .238-.164l.035-.029q.046-.038.09-.08l.018-.017q.053-.05.101-.105l.027-.03a2 2 0 0 0 .166-.22q.011-.014.022-.032l.007-.01.06-.102.018-.03q.039-.07.075-.145l.002-.006.008-.018a4 4 0 0 0 .073-.172l.013-.033.041-.12.008-.023.021-.069.013-.048.028-.11.013-.047.009-.048.02-.096.01-.053.009-.057.013-.086.007-.048.007-.074.009-.083.004-.035.007-.112.003-.06.001-.016q.005-.096.005-.193v-.012z" fill="#E6E6E6"/><path d="M144.165 71.027a1 1 0 0 1-.083.07c-.016.013-.068.022-.094.032z" fill="url(#i)"/><path d="m153.22 57.167-.002-.037-.004-.076-.004-.088-.005-.073-.007-.08-.004-.05-.021-.186-.002-.019q-.013-.105-.03-.21l-.001-.008-.008-.045a5 5 0 0 0-.052-.281l-.02-.097-.014-.062-.022-.092-.015-.066-.024-.091-.024-.091-.011-.04-.038-.133-.021-.073-.006-.017a6 6 0 0 0-.07-.219l-.002-.007-.014-.041-.059-.167-.013-.035-.028-.076-.037-.096-.028-.07-.032-.081-.022-.055-.053-.123-.026-.06-.008-.019L152.4 54l-.005-.01-.032-.067-.071-.146-.013-.026-.066-.127-.051-.1-.017-.03-.035-.064-.093-.167-.04-.069-.026-.044-.048-.08-.082-.134q-.035-.058-.072-.115l-.085-.13-.028-.045-.065-.094-.049-.072-.134-.187-.018-.025-.003-.004-.03-.04-.147-.193-.01-.013-.111-.137-.048-.06-.005-.005-.162-.19-.006-.006-.04-.045-.118-.131-.017-.018-.07-.073-.086-.09-.027-.026-.077-.077-.073-.072-.036-.034-.085-.079-.064-.059-.044-.038-.086-.076-.056-.049-.055-.044-.131-.108-.07-.053-.079-.06-.035-.027-.095-.067-.067-.048-.019-.014-.177-.117h-.001l-.005-.003-.171-.105-.04-.023-9.542-5.51-.123-.068-.01-.006-.018-.009-.134-.07-.018-.009-.008-.004-.148-.07-.013-.006-.019-.007-.142-.06-.006-.003-.002-.001q-.075-.03-.15-.056l-.017-.007-.014-.005-.146-.047-.008-.003-.015-.004-.149-.041-.009-.003h-.003l-.154-.034-.016-.004-.018-.003-.043-.008-.052-.009-.043-.006-.028-.004-.023-.003-.046-.006-.094-.008-.024-.002-.022-.002a2 2 0 0 0-.15-.005h-.041l-.073.002-.029.001-.101.007h-.001l-.008.001a2 2 0 0 0-.221.032l-.015.003h-.004q-.069.014-.134.033l-.021.005a2 2 0 0 0-.127.04l-.01.003-.019.007a1 1 0 0 0-.135.055l-.032.015-.053.026-.027.013-.077.043h-.001l-11.531 6.701.078-.043.027-.013.053-.026.032-.015.135-.054.029-.01q.063-.023.127-.04l.021-.006q.065-.018.134-.032l.019-.004a2 2 0 0 1 .221-.032h.009l.1-.008h.03a3 3 0 0 1 .264.003l.046.003.094.009.046.005.051.007.043.006.052.01.043.007.034.007q.076.014.154.034l.012.003q.074.018.149.041l.023.007q.072.021.146.048l.031.01.15.057.008.003a5 5 0 0 1 .322.144l.025.013.135.07.028.015q.062.033.122.069l9.542 5.509q.107.061.212.128l.005.003q.099.063.197.13l.067.049q.066.045.13.094l.079.06.201.16.111.094.086.075.108.098.085.08a13 13 0 0 1 .299.298l.07.073.135.149.04.045q.088.099.173.202l.048.06a9 9 0 0 1 .268.342l.033.044.017.024q.069.093.135.189l.049.07.178.27.073.115.081.133.074.125.04.069.128.23.068.131.066.127.084.172.032.066.106.234.026.06.074.178.033.08.065.167.028.076q.037.1.071.201l.015.042q.04.12.077.243l.022.073.049.172.063.248.022.093.034.159.017.086q.019.097.035.195l.008.044a10 10 0 0 1 .058.474l.006.08.01.161.004.076.004.225a4 4 0 0 1-.021.446l-.009.087a3 3 0 0 1-.029.217l-.019.114-.021.1a3 3 0 0 1-.052.215q-.017.062-.036.122l-.008.025a3 3 0 0 1-.056.158l-.016.04-.06.14-.009.018a3 3 0 0 1-.08.158l-.019.032-.07.117-.023.033-.069.099-.031.04-.073.09-.028.032a2 2 0 0 1-.105.11l-.019.017-.094.084-.037.03-.086.065-.037.026a2 2 0 0 1-.125.08l11.531-6.701a2 2 0 0 0 .125-.08l.037-.026.086-.065.037-.03q.048-.04.094-.084l.019-.017q.054-.053.105-.11l.028-.032.073-.09.031-.04q.036-.048.069-.1l.023-.032.008-.012.062-.106.019-.03q.04-.075.078-.152l.003-.007.008-.019q.031-.068.06-.138l.016-.041.013-.034q.023-.062.044-.125l.007-.024.023-.072.013-.05.03-.114.012-.05.011-.05.02-.1.011-.055.009-.06.013-.09.007-.05.009-.078.008-.086.004-.037.007-.116.004-.063.001-.017a4 4 0 0 0 .005-.201v-.012l-.002-.188" fill="#F3F5FF"/><path d="M137.483 56.797c2.316 1.338 4.206 4.61 4.198 7.273-.007 2.661-1.909 3.745-4.226 2.407l-9.542-5.509c-2.316-1.337-4.206-4.61-4.198-7.271.007-2.663 1.909-3.746 4.226-2.409z" fill="#F3F5FF"/><path d="M136.484 57.229c1.832 1.058 3.326 3.646 3.32 5.752s-1.51 2.962-3.342 1.905l-7.548-4.358c-1.832-1.058-3.326-3.646-3.32-5.752s1.51-2.963 3.342-1.905z" fill="url(#j)"/><path d="M134.42 49.782c-.738.427-1.936.427-2.675 0-.738-.426-.738-1.118 0-1.544.739-.427 1.937-.427 2.675 0 .739.426.739 1.118 0 1.544" fill="#E6E6E6"/><path d="M134.827 48.878v-.003l-.001-.055-.534-6.973-.002.034v.003l-.005.03-.002.012-.005.022-.004.013-.007.02-.005.015-.009.02-.006.013-.01.02-.008.014-.012.02-.009.014-.012.015-.014.02-.013.015-.016.019-.012.012-.028.028-.013.012-.039.033-.005.004a2 2 0 0 1-.133.087 1 1 0 0 1-.09.046l-.031.013-.064.026-.039.013-.06.02-.044.012-.063.016a1 1 0 0 1-.105.02l-.026.005q-.048.008-.097.013l-.019.002-.065.005a2 2 0 0 1-.235.001l-.049-.002-.064-.006-.045-.005-.064-.01-.045-.007-.055-.012-.054-.012-.04-.011-.072-.022-.085-.03-.011-.004-.075-.034-.022-.01-.08-.044c-.236-.142-.346-.327-.333-.51l-.495 7.015c-.018.261.14.526.476.728l.078.044.024.012.063.031.014.007.007.003.084.035.017.006q.034.014.072.027l.013.004.017.006.046.014.033.01.048.014.023.006.011.002.038.01.039.009.039.008.028.006h.007q.066.013.133.022l.011.002.009.001q.065.008.131.014l.01.001h.012q.066.006.133.008h.008l.03.001h.129l.029-.001.044-.002.039-.002.044-.003.012-.001.022-.002.057-.006.035-.004.055-.007.021-.003.01-.002.104-.018.016-.003q.045-.008.089-.02l.015-.003.009-.002q.062-.015.122-.034l.02-.006a2 2 0 0 0 .262-.1 2 2 0 0 0 .176-.095l.018-.011a1 1 0 0 0 .103-.072l.008-.006.002-.001q.002-.003.006-.005l.056-.047.018-.017.041-.04.01-.011.006-.007.023-.026.018-.022.021-.028.013-.017.003-.005.013-.02.018-.028.011-.021.01-.019.005-.009.008-.019.013-.029.007-.02.005-.012.005-.017.005-.018.008-.032.003-.016.001-.005.006-.04v-.004z" fill="#666"/><path d="M132.213 42.328c-.459-.277-.443-.717.036-.984.478-.267 1.239-.26 1.698.017.459.276.444.717-.035.984s-1.239.26-1.699-.017" fill="#007272"/><path d="M133.119 43.773a2.248 2.248 0 1 0 0-4.495 2.248 2.248 0 0 0 0 4.495" fill="url(#k)"/><path d="M144.71 55.669c-.739.426-1.937.426-2.675 0-.739-.426-.739-1.118-.001-1.544.739-.427 1.937-.427 2.675 0 .739.426.739 1.117.001 1.544" fill="#E6E6E6"/><path d="M145.112 54.78v-.002l-.001-.056-.535-7.011.001.039-.002.033v.003l-.005.03-.002.012-.005.023-.004.013-.007.02-.005.014-.009.02-.006.014-.01.019-.008.015-.012.019-.009.014-.012.015-.014.02-.013.015-.016.019-.012.012-.028.028-.013.012-.044.037a2 2 0 0 1-.133.088 1 1 0 0 1-.09.045l-.031.013-.064.026-.039.014-.104.031-.063.016-.029.007-.076.014-.026.005-.116.014-.065.005-.12.004h-.053l-.062-.002-.048-.003-.064-.006-.046-.005-.064-.01-.045-.007-.055-.012-.054-.012-.04-.011-.072-.021-.085-.03-.011-.005-.075-.033-.022-.011-.08-.044c-.235-.141-.346-.326-.333-.51l-.495 7.015c-.018.261.14.526.477.729q.037.023.078.043l.023.012a3 3 0 0 0 .168.077l.017.006.072.026.013.005.017.005.046.015.033.01.048.013.023.006.011.003.038.009.039.009.039.008.028.006.007.001.132.021.012.002.009.001.131.014.01.001.012.001q.066.005.133.007h.008l.029.001h.13l.029-.001.044-.002.039-.002.044-.003h.012l.022-.003.057-.006q.017 0 .035-.004l.055-.007.021-.003.01-.002q.053-.007.104-.017l.016-.004q.045-.008.089-.02l.015-.002.009-.003q.062-.015.122-.033l.02-.007q.06-.019.119-.04l.017-.007a2 2 0 0 0 .302-.148l.018-.011.041-.027.017-.012.045-.033.008-.006.001-.001.006-.005.056-.047.018-.017.042-.04.01-.011.006-.007.023-.026.018-.022.021-.028.013-.017.003-.005.013-.02.018-.028.011-.021.01-.019.005-.009.008-.019.013-.029.007-.02.005-.012.005-.017.005-.018.008-.032.003-.016.001-.005.006-.04v-.004z" fill="#666"/><path d="M142.51 48.23c-.459-.276-.443-.717.035-.984.479-.267 1.24-.26 1.699.017s.444.717-.035.984-1.239.26-1.699-.017" fill="#007272"/><path d="M143.404 49.668a2.248 2.248 0 1 0 0-4.496 2.248 2.248 0 0 0 0 4.496" fill="url(#l)"/><path d="M131.199 58.451c0-.804-.565-1.783-1.262-2.185-.696-.402-1.261-.076-1.261.728zm5.551 3.219c0-.805-.565-1.783-1.262-2.185s-1.261-.076-1.261.728z" fill="#F3F5FF"/><path d="M139.198 105.628q.007-.13.019-.263l.003-.023a6 6 0 0 1 .052-.397l.023-.147.034-.177.03-.151.031-.135.042-.176.036-.139.051-.185.034-.115.063-.204.035-.108a9 9 0 0 1 .108-.315 11 11 0 0 1 .156-.413l.094-.232.052-.125.088-.205.068-.152.088-.191q.035-.078.073-.155.043-.093.089-.185a11 11 0 0 1 .182-.363q.048-.095.099-.191l.089-.168q.072-.136.149-.273l.073-.132q.106-.19.217-.38l.016-.027.008-.014.188-.316.053-.087.205-.332q.101-.162.205-.323l.081-.125.235-.356.152-.225.084-.124.181-.261.06-.087.103-.144.173-.244.116-.16.166-.226.124-.166.164-.22.13-.17.164-.214.104-.133q.157-.203.319-.405l.075-.095q.191-.239.386-.476l.091-.11.331-.395.088-.105q.199-.234.401-.467l.125-.144.201-.228.139-.157.196-.218.144-.159.194-.213.146-.158.196-.21.145-.155.201-.212q.07-.076.142-.148a27 27 0 0 1 .343-.355l.241-.245.103-.104.632-.626.071-.069.29-.278.006-.007.285-.269.069-.065q.143-.135.287-.266l.026-.024q.132-.123.265-.242l.068-.062.283-.254.038-.033a31 31 0 0 1 .596-.52l.048-.04q.121-.104.241-.204l.062-.053.272-.225.053-.043.235-.19.057-.046q.133-.108.265-.21l.057-.045.229-.177.05-.039a49 49 0 0 1 .542-.403l.041-.03.25-.178.059-.042.222-.154.031-.02.241-.162.058-.038.224-.144.016-.01a18 18 0 0 1 .513-.31q.155-.09.308-.173l.089-.047q.117-.063.234-.121l.08-.04q.151-.076.301-.144l.05-.023.253-.11.095-.04a12 12 0 0 1 .465-.176l.074-.026q.131-.046.263-.086l.048-.015q.107-.032.212-.061l.126-.033.094-.025.137-.031.086-.02.153-.03.068-.014a7 7 0 0 1 .423-.066l.067-.007.138-.015.074-.006.133-.01q.035 0 .07-.004l.172-.006h.021q.096-.003.191 0h.054l.139.005.059.003.08.005q.11.008.216.02l.058.006q.128.015.254.037l.056.01q.1.018.197.04l.066.015q.12.028.239.062l.019.006q.108.031.214.068l.064.023q.094.034.186.072l.043.017a5 5 0 0 1 .529.264l-2.447-1.423-.053-.03-.035-.019-.17-.089-.053-.026a5 5 0 0 0-.219-.1q-.005 0-.01-.004l-.033-.013-.185-.071-.065-.023a5 5 0 0 0-.213-.068l-.016-.006h-.004a5 5 0 0 0-.238-.062l-.066-.015-.197-.04-.04-.008-.016-.002a5 5 0 0 0-.255-.037l-.058-.006a5 5 0 0 0-.215-.02l-.041-.003-.04-.002-.198-.008-.054-.001h-.191l-.02.001-.139.004-.033.002-.071.004-.132.01-.074.006-.139.015-.066.007-.191.027-.015.002h-.002l-.216.037-.067.013-.154.03-.086.02-.136.032-.095.025-.099.025-.026.008-.212.061-.049.015a9 9 0 0 0-.263.085l-.074.027-.193.07-.097.037-.174.07-.053.02-.043.02-.252.11-.05.022q-.15.068-.301.143l-.081.04-.234.122-.089.047a13 13 0 0 0-.821.482l-.016.01-.224.145-.057.038-.241.16-.031.022-.223.154-.059.041-.25.179-.04.03-.284.208a25 25 0 0 0-.537.41l-.057.045-.322.256-.235.19-.053.044-.273.225-.061.052-.242.205-.048.04-.277.24-.066.057-.252.222-.039.034-.282.253-.069.062-.265.242-.026.024-.286.266-.07.067q-.142.132-.284.268l-.007.006-.289.28-.071.068a53 53 0 0 0-1.108 1.11l-.212.22-.342.36-.146.155-.342.369-.193.212a18 18 0 0 0-.34.377l-.14.157-.2.228-.1.114-.025.03q-.203.231-.401.467l-.089.105q-.166.197-.33.395l-.091.11a41 41 0 0 0-.781.976l-.057.073-.046.06a27 27 0 0 0-.294.384 31 31 0 0 0-.454.613l-.116.159-.174.244-.09.126-.012.018-.061.088-.18.26-.085.124-.152.225-.087.132-.147.224-.081.125-.036.056-.169.266-.022.036-.183.297-.053.087q-.096.157-.188.316l-.008.014-.002.003-.014.024a28 28 0 0 0-.474.848l-.055.105-.098.19-.089.175-.094.189-.038.078-.05.106-.074.155-.087.191-.068.152-.026.059-.062.146-.053.125-.094.234-.037.094-.006.015q-.058.152-.112.303l-.026.074-.069.197-.014.044-.034.108a9 9 0 0 0-.097.318l-.025.085-.026.1-.036.139-.042.177-.031.134-.011.049-.02.103-.033.177-.024.147-.025.171-.008.058-.018.168-.003.023a8 8 0 0 0-.019.263l-.003.063a6 6 0 0 0-.006.26c.005 1.677.78 2.824 2.014 3.541l2.448 1.422c-1.234-.717-2.01-1.863-2.014-3.541a5 5 0 0 1 .006-.26z" fill="#CED8EF"/><path d="M154.883 85.74c5.354-3.091 9.709-.61 9.726 5.542s-4.309 13.647-9.663 16.738-15.733 4.088-15.751-2.065c-.017-6.152 10.334-17.124 15.688-20.215" fill="#EEF0FD"/><path d="M161.846 93.366c0 1.95-1.369 4.321-3.058 5.296s-3.058.185-3.058-1.765 1.369-4.32 3.058-5.296c1.689-.975 3.058-.184 3.058 1.765" fill="url(#m)"/><path d="m128.342 93.372.001-.325-.522-.3-.001.324zm-.522 1.426 1.812 1.046 1.361 2.357a.54.54 0 0 0-.108.352c-.002.42.295.933.66 1.144.184.106.351.116.472.045l.003-.002.007-.004.028-.02a.4.4 0 0 0 .125-.193l.004-.012.001-.003.004-.014v-.001l.002-.007.002-.008v-.002l.002-.009.002-.01.003-.014v-.002l.001-.01h.001v-.007l.001-.007v-.001l.003-.02.002-.034.001-.007v-.01l.001-.009v-.037a1 1 0 0 0-.013-.14l-.001-.005v-.002l-.003-.014-.001-.008-.002-.01-.004-.018a1 1 0 0 0-.025-.102l-.025-.076-.002-.006-.001-.001v-.001l-.002-.005-.002-.007-.003-.005-.001-.003-.005-.014-.006-.014-.01-.025-.002-.005-.004-.009-.003-.008h-.001l-.003-.009h-.001a2 2 0 0 0-.056-.114l-.004-.006-.001-.003-.004-.007-.009-.015a1.5 1.5 0 0 0-.337-.404l-.011-.008-.048-.036-.003-.002-.007-.004-.003-.002-.009-.007-.016-.01-.033-.02a.55.55 0 0 0-.355-.086l-1.404-2.431-.004-.008a.3.3 0 0 0-.074-.083l-.014-.01-.007-.004-1.789-1.033-.081-.046zm3.461 3.674a.22.22 0 0 1 .171-.014.4.4 0 0 1 .071.028l.025.013c.21.121.38.415.379.656l-.001.025a.3.3 0 0 1-.011.075.22.22 0 0 1-.099.143c-.069.04-.165.035-.27-.026l-.009-.006-.01-.006-.009-.006-.009-.006-.029-.02-.003-.003-.003-.003a1 1 0 0 1-.09-.085l-.002-.003a1 1 0 0 1-.061-.078l-.002-.002-.027-.041-.003-.006-.004-.006-.014-.024-.003-.005v-.001l-.006-.01-.025-.052-.001-.001-.025-.063-.001-.002a1 1 0 0 1-.027-.095h-.001v-.003a1 1 0 0 1-.014-.114v-.026l.009-.08.014-.046.001-.001.017-.034a.2.2 0 0 1 .041-.05l.025-.019zm-2.416-4.894-.017.33 2.108 1.082c.021.158.077.322.167.478.123.212.292.382.477.477s.362.103.501.025l.005-.004.036-.024a.3.3 0 0 0 .049-.043l.009-.01.008-.009.004-.005.006-.007.005-.006.004-.006.005-.007.006-.01.004-.005.002-.004h.001v-.001l.009-.015.007-.012.015-.03v-.001l.008-.018.004-.009.003-.009.001-.003a.7.7 0 0 0 .04-.2v-.005a1.2 1.2 0 0 0-.174-.65l-.008-.014-.003-.005a1.3 1.3 0 0 0-.332-.375h-.001l-.01-.008-.05-.034-.002-.001-.003-.002-.003-.002-.004-.002-.013-.008-.001-.001h-.001l-.028-.017-.003-.001-.015-.008-.013-.007-.013-.006-.013-.006-.009-.004-.005-.002-.006-.002-.01-.005-.021-.008-.013-.004-.013-.005q-.006 0-.01-.003h-.002l-.012-.004-.014-.004-.011-.002-.002-.001-.038-.008-.008-.001-.007-.001-.029-.003h-.007l-.006-.001-.014-.001h-.045l-.006.001h-.001l-.011.001h-.004l-.012.002h-.006l-.015.003-.007.002h-.002l-.008.002-.008.002-.01.003-.008.002h-.001l-.009.003-.008.003-.009.003-.008.003-.005.002-.002.001-.007.003-.004.002-.004.002-.012.006-.013.007a.47.47 0 0 0-.206.286l-2.032-1.043zm2.512 1.137a.26.26 0 0 1 .186-.023.4.4 0 0 1 .101.037.75.75 0 0 1 .37.68.4.4 0 0 1-.015.069.25.25 0 0 1-.111.148l-.004.003-.006.003-.005.003-.003.001-.003.002-.006.002-.004.002h-.002l-.004.002-.011.004-.004.002-.005.001-.004.001h-.001l-.011.003h-.004l-.005.001-.005.001-.028.002h-.034l-.01-.002h-.007l-.005-.001-.009-.002h-.006v-.001l-.017-.004-.01-.003-.019-.006-.012-.004-.008-.003-.009-.004-.017-.008-.005-.002-.008-.004-.009-.005-.002-.001-.012-.006-.015-.01-.004-.002-.027-.018-.006-.005h-.001l-.049-.04-.004-.004-.036-.036-.004-.004-.031-.036-.001-.001-.001-.002h-.001l-.001-.002-.001-.001-.027-.036h-.001l-.028-.044-.019-.033-.003-.006-.006-.01q-.013-.024-.024-.049l-.001-.003-.001-.001q-.013-.03-.023-.062l-.001-.001v-.002l-.001-.002-.011-.035-.002-.007-.001-.005-.009-.043-.001-.002v-.003a.6.6 0 0 1-.009-.115v-.014l.001-.01v-.003a.4.4 0 0 1 .014-.079v-.002l.001-.002.016-.044v-.001l.001-.002h.001l.017-.032.001-.002.001-.002h.001l.02-.027h.001l.001-.002.02-.02h.001l.002-.002.024-.018h.002l.006-.005zm-3.474-3.652-.082-.047-.001.326 1.871 1.08q.058.032.1.01l1.412-.806c.103.135.224.249.354.324.184.106.352.116.472.045l.003-.001.007-.004.028-.02a.36.36 0 0 0 .102-.132l.023-.06.002-.005.002-.008.001-.004.003-.008.002-.007.007-.035.003-.014.002-.016.001-.008.001-.002.001-.01.001-.01.001-.01.001-.008v-.009l.001-.008v-.009l.001-.009v-.027a1.33 1.33 0 0 0-.201-.664l-.002-.003a1.4 1.4 0 0 0-.327-.387l-.002-.002h-.001l-.063-.047-.016-.01-.029-.02-.005-.002-.003-.002-.012-.007a1 1 0 0 0-.092-.046l-.018-.007-.018-.007-.053-.016-.013-.003-.013-.003-.008-.001-.005-.001h-.004l-.002-.001-.007-.001-.008-.001-.009-.001-.033-.003h-.039l-.011.002h-.008l-.006.001h-.001l-.005.001h-.003l-.008.002-.007.001-.01.002-.011.003-.01.003h-.002l-.009.003-.005.002-.007.003-.002.001-.009.003-.003.002-.006.003h-.001l-.003.001-.002.001-.007.004-.01.006h-.001c-.125.072-.195.223-.195.426-.001.153.039.317.105.475l-1.369.781zm3.291.036a1 1 0 0 1-.014-.115v-.025l.009-.08v-.001h.001v-.003l.013-.042.002-.003.015-.033h.001l.017-.025.001-.002.001-.001h.001l.018-.02.001-.001h.001l.001-.001.001-.001.021-.016.002-.001.002-.002.004-.002a.22.22 0 0 1 .172-.014.4.4 0 0 1 .097.041.8.8 0 0 1 .268.283c.071.124.11.256.11.373l-.001.025a.3.3 0 0 1-.011.075.22.22 0 0 1-.099.143h-.001q-.002.003-.005.003l-.002.001-.005.003h-.001l-.007.003-.004.002h-.002l-.005.003-.005.002h-.002l-.004.001h-.001l-.013.003-.008.002h-.005l-.004.001h-.009l-.004.001h-.033l-.028-.004-.018-.004-.009-.002-.007-.002-.003-.001-.008-.003-.01-.003-.009-.004-.009-.004-.011-.005-.008-.004-.009-.004-.03-.017-.01-.006-.009-.006-.036-.026h-.001l-.004-.004-.002-.001-.051-.044-.04-.042-.002-.003-.034-.041-.029-.04-.027-.041-.002-.003-.012-.02-.006-.011-.004-.007-.005-.01-.025-.05-.001-.002-.001-.002v-.001l-.025-.06-.001-.002-.001-.005a1 1 0 0 1-.027-.093m-7.196-4.985.002-.599-.283-.163-.002.599zm-4.149-6.808a1 1 0 0 0-.009.117c-.001.42.295.933.66 1.144a.55.55 0 0 0 .361.085l1.361 2.357-.006 2.081.283.164v-.094l.006-2.055v-.008a.3.3 0 0 0-.041-.13l-1.404-2.431.006-.008.005-.006.036-.058.003-.007h.001l.01-.025.002-.003.004-.01.002-.008.003-.006.004-.013.01-.037.003-.01v-.001l.001-.007.002-.007a1 1 0 0 0 .013-.135v-.007a1.34 1.34 0 0 0-.192-.65l-.009-.014-.002-.004a1.5 1.5 0 0 0-.176-.241 1 1 0 0 0-.15-.144l-.001-.001-.012-.01-.046-.034h-.002l-.012-.01-.013-.008-.012-.008-.033-.02-.009-.005-.008-.005-.013-.007-.013-.006-.034-.016h-.001l-.009-.005h-.001l-.013-.006-.007-.002-.01-.004-.016-.006-.01-.003-.012-.004-.012-.003-.011-.003-.011-.003-.015-.003-.02-.004-.009-.001h-.002l-.018-.003h-.009l-.01-.001h-.055l-.009.001-.009.001-.008.001-.009.002h-.006l-.002.001-.018.004-.008.002-.005.002h-.001l-.002.001-.016.005-.007.003-.011.005-.006.002-.005.003-.005.002-.004.002-.002.001-.005.003-.005.003c-.096.055-.162.16-.185.308m1.033.718v.026l-.011.074a.22.22 0 0 1-.1.144l-.007.004-.006.003-.006.002-.002.001-.005.002-.002.001-.005.002h-.002l-.007.002-.006.002-.007.002h-.006l-.005.002-.012.001h-.006l-.006.001h-.033l-.006-.002h-.007l-.006-.001-.007-.002-.013-.002-.007-.002-.007-.002-.008-.002-.006-.002-.005-.002h-.001l-.027-.01-.006-.004-.023-.011-.018-.01-.009-.005-.005-.003-.007-.004-.007-.005-.01-.007-.028-.02-.002-.002h-.001v-.001h-.001l-.002-.002a1 1 0 0 1-.086-.082l-.001-.001h-.001l-.002-.003-.002-.002a1 1 0 0 1-.06-.077h-.001v-.001l-.003-.004-.001-.001-.025-.039-.003-.006-.007-.01-.001-.003-.003-.004-.006-.012-.005-.008-.003-.005v-.001l-.002-.004h-.001v-.001l-.024-.05h-.001l-.001-.003-.024-.06-.001-.003-.001-.003a1 1 0 0 1-.026-.091l-.001-.004v-.001a1 1 0 0 1-.014-.113v-.026a.3.3 0 0 1 .024-.126v-.001l.015-.031.001-.002.001-.001.017-.025h.001l.001-.002.022-.022.022-.017.001-.001.005-.003h.001a.22.22 0 0 1 .174-.015.4.4 0 0 1 .07.027l.026.014a.84.84 0 0 1 .378.655m2.321 1.126c-.001.203.068.434.193.65.09.158.203.293.326.394l-.007 2.321.283.164.001-.094.006-2.227a.43.43 0 0 0 .272.008.4.4 0 0 0 .056-.024l.007-.005.019-.012.061-.056.008-.01.004-.006.005-.007.008-.01.015-.024v-.002h.001l.003-.007.004-.006.001-.002.006-.012.007-.018.002-.005.003-.006.003-.008.004-.01.003-.008.003-.009a.7.7 0 0 0 .028-.199v-.005a1.34 1.34 0 0 0-.192-.65l-.009-.014-.001-.003a1.5 1.5 0 0 0-.327-.386l-.002-.001-.002-.002-.01-.008h-.001l-.043-.033h-.001l-.001-.001-.002-.002-.004-.002-.016-.011-.033-.021-.011-.007-.002-.001h-.001l-.002-.002-.017-.01-.008-.004-.008-.004-.008-.004-.01-.005-.006-.003-.01-.005-.016-.007h-.001l-.003-.002-.004-.001-.007-.003-.009-.004-.009-.003-.015-.006-.008-.002-.017-.006-.009-.003-.012-.003-.012-.003-.008-.001-.003-.001-.007-.002h-.002l-.012-.002-.008-.002-.012-.002h-.009l-.006-.001h-.006l-.02-.002h-.03l-.036.003h-.007l-.008.002-.005.001-.013.003-.006.001h-.002l-.006.002-.008.003-.011.003-.003.001-.003.001-.009.004-.004.002-.013.005-.006.003-.004.002-.006.003-.007.004c-.126.072-.195.224-.196.427m.395-.08a.22.22 0 0 1 .173-.015.4.4 0 0 1 .096.041.84.84 0 0 1 .378.656v.026l-.011.074a.22.22 0 0 1-.097.142l-.004.002c-.072.041-.167.031-.268-.027l-.01-.005-.007-.005-.004-.002-.004-.003-.012-.008h-.001l-.002-.003-.026-.018-.002-.001-.001-.002-.002-.001-.002-.002-.049-.043h-.001v-.001l-.002-.002-.036-.037-.002-.002-.033-.04-.001-.001-.03-.042-.002-.002-.025-.039-.002-.003-.006-.009-.004-.007-.003-.005-.007-.012-.003-.006-.006-.01-.026-.054q-.014-.03-.025-.062l-.001-.003-.001-.003a.7.7 0 0 1-.041-.223v-.012a.4.4 0 0 1 .023-.124l.001-.001v-.002l.016-.033.001-.001h.001l.018-.026.021-.023h.001l.022-.017h.001zm2.979 2.24c0 .15.037.31.102.466l-1.338.763-.074.042q-.041.025-.042.091l-.006 2.15.283.162v-.093l.006-1.988.272-.155.082-.047 1.016-.578c.103.137.226.254.359.33.177.102.344.12.469.048l.005-.003.036-.025a.4.4 0 0 0 .08-.091l.006-.01.001-.002.008-.015.001-.001.003-.006.002-.006.002-.002.002-.006.004-.01.003-.005.002-.006.003-.009.003-.008.004-.009.002-.009.001-.003.001-.003.003-.009.001-.007.015-.07.002-.017.001-.008.002-.017.001-.014v-.003l.001-.016v-.016l.001-.01v-.028l-.001-.026-.001-.008-.001-.018-.001-.02-.002-.013q-.002-.028-.007-.055v-.006l-.001-.005v-.001l-.001-.001-.001-.009-.001-.003v-.002l-.003-.014v-.003l-.003-.013-.004-.018-.019-.074-.002-.01-.027-.083-.001-.002a1.5 1.5 0 0 0-.107-.232l-.019-.032a1.5 1.5 0 0 0-.326-.387h-.001l-.004-.003-.001-.002-.009-.007-.053-.039-.016-.01-.002-.002-.01-.007h-.001l-.007-.004-.012-.008-.017-.01-.025-.014-.009-.004-.017-.009-.008-.004-.009-.004-.016-.007-.009-.004-.009-.004-.007-.002-.027-.01-.014-.004-.008-.003-.037-.01h-.004l-.002-.001-.012-.002-.005-.001h-.004l-.008-.002-.01-.001-.006-.001h-.002l-.023-.002h-.01l-.009-.001h-.027l-.014.001-.007.001-.01.002-.01.001h-.001l-.01.002-.007.001h-.001l-.004.002-.007.001-.019.006-.019.006h-.001l-.008.004-.018.008-.017.01h-.001c-.119.069-.193.216-.193.424m.392-.08.003-.001h.001a.22.22 0 0 1 .172-.015.4.4 0 0 1 .096.042.8.8 0 0 1 .268.282c.071.124.11.256.11.373l-.001.026a.3.3 0 0 1-.011.074.22.22 0 0 1-.098.144h-.002c-.072.041-.167.032-.269-.027l-.019-.012-.018-.012-.029-.02-.003-.003-.001-.001-.001-.001h-.001l-.049-.044-.002-.001-.001-.001-.037-.039-.001-.001-.034-.04v-.002h-.001l-.029-.04-.003-.004-.026-.04-.006-.01-.014-.023-.004-.008-.003-.005-.002-.005-.024-.048-.001-.003-.001-.002-.025-.061-.001-.003a.7.7 0 0 1-.042-.212v-.026l.009-.078v-.002l.014-.045.001-.002a.3.3 0 0 1 .036-.06q.01-.013.021-.023h.001l.024-.019zm-4.993 13.2-1.37.78-.006-.007a1.2 1.2 0 0 0-.339-.314l-.015-.009-.011-.006-.011-.007-.012-.006-.011-.005-.006-.004-.006-.002-.013-.006-.012-.006-.025-.01-.007-.003-.017-.006-.007-.002-.008-.003-.016-.005-.007-.002-.012-.003h-.002l-.01-.003h-.003l-.011-.003-.013-.002-.008-.002h-.007l-.006-.001-.008-.001h-.003l-.009-.002h-.02l-.01-.001h-.03l-.008.001h-.001l-.018.002-.009.002-.009.001-.024.005-.008.003-.008.002-.007.002-.007.003-.006.002h-.002l-.004.003-.013.005-.006.003-.004.002-.006.003-.008.004-.001.001c-.119.07-.187.21-.193.4l-.001.026c-.001.203.068.434.192.65.125.216.291.391.468.494a.6.6 0 0 0 .31.09.34.34 0 0 0 .162-.045l.008-.004.03-.022c.092-.073.149-.2.155-.371v-.027l-.001-.042v-.014l-.001-.002-.003-.045-.001-.01-.007-.048-.001-.007-.001-.002a1.3 1.3 0 0 0-.06-.227l-.002-.005-.006-.016-.005-.014-.008-.019-.006-.016.273-.156.082-.047 1.057-.602.002-.001.004-.003h.001q.034-.027.035-.087l.006-2.149-.201-.116-.082-.047zm-1.352 1.43-.001.026a.3.3 0 0 1-.011.075.22.22 0 0 1-.099.143c-.069.04-.165.035-.27-.026l-.019-.012-.009-.005-.008-.006h-.001l-.008-.007-.021-.015-.004-.003-.002-.002h-.001a.6.6 0 0 1-.087-.084l-.003-.002-.03-.037h-.001l-.001-.002-.001-.001-.001-.002h-.001l-.025-.035-.001-.002h-.001l-.001-.001-.003-.005-.001-.001-.024-.038-.002-.002-.005-.01-.014-.023-.004-.007-.004-.007-.001-.004h-.001l-.001-.002-.022-.045-.002-.005-.001-.002-.008-.018-.011-.027-.005-.013v-.002l-.002-.005-.014-.042-.001-.006q-.007-.021-.011-.042l-.001-.002v-.004a.6.6 0 0 1-.014-.114v-.026l.009-.08.001-.002.013-.043.001-.002.016-.033.001-.001.018-.027h.001l.021-.022.022-.017.002-.001.003-.002.004-.002a.22.22 0 0 1 .172-.014.4.4 0 0 1 .071.027l.025.014c.105.06.2.164.268.283a.8.8 0 0 1 .111.373m2.847.304-.002.635v.175l-.012-.004-.011-.003-.012-.004-.088-.015-.02-.001h-.035l-.018.001h-.002l-.009.002-.01.001-.008.002-.008.001-.006.002-.007.001-.019.006-.01.003-.009.003-.003.001-.002.001-.01.004-.005.003-.007.003-.014.008-.003.001c-.126.072-.195.223-.196.426 0 .202.068.425.179.625l.014.026c.12.207.285.388.468.493.177.102.343.119.469.048l.005-.003.036-.025a.3.3 0 0 0 .065-.07l.015-.022.006-.011.01-.018.005-.01.013-.029.003-.008.004-.013.001-.002.002-.007.003-.008.001-.003.002-.008.003-.013.003-.009v-.003l.002-.008.003-.015a1 1 0 0 0 .014-.142c0-.203-.068-.434-.193-.65l-.006-.011-.064-.1h-.001l-.001-.003-.005-.006-.006-.01a1.4 1.4 0 0 0-.243-.264l.002-.82.004-1.501-.202-.117-.081-.047zm-.131 1.171a.22.22 0 0 1 .173-.014.4.4 0 0 1 .096.042.8.8 0 0 1 .268.283.76.76 0 0 1 .111.372l-.001.026a.4.4 0 0 1-.011.074.22.22 0 0 1-.097.142l-.004.002c-.071.041-.167.032-.268-.027l-.01-.006-.01-.006-.001-.001-.007-.004-.038-.027-.005-.004-.001-.001-.05-.045-.003-.002-.036-.038-.001-.001-.001-.001-.034-.04-.031-.043-.001-.002-.026-.04-.002-.002-.001-.003a1 1 0 0 1-.051-.095l-.001-.003-.004-.01-.022-.053v-.002a.6.6 0 0 1-.043-.227v-.01a.4.4 0 0 1 .01-.08v-.004l.014-.043.001-.002.015-.032h.001v-.002h.001l.016-.024.001-.001.001-.002.019-.02h.002l.001-.003h.001q.01-.009.021-.016h.002zm1.64-1.1c0 .043.015.093.041.139l1.404 2.431a.54.54 0 0 0-.105.347c-.001.21.073.443.193.65.119.207.285.388.467.494.187.107.356.116.477.043l.008-.006.002-.001.023-.017a.3.3 0 0 0 .059-.061l.007-.009.007-.01.004-.007.001-.002.004-.007q.002 0 .002-.003l.005-.007.005-.009v-.002h.001l.002-.005.005-.009.023-.06.001-.002.007-.025.002-.006.002-.01v-.002l.008-.037.002-.012.004-.033v-.001l.003-.034v-.009l.001-.009v-.046a1 1 0 0 0-.012-.136v-.002h-.001l.001-.001-.001-.001v-.004l-.001-.001-.002-.016a1.54 1.54 0 0 0-.442-.81l-.007-.007-.008-.007-.006-.005-.011-.011-.007-.006-.018-.016h-.001l-.002-.001-.007-.006-.001-.001-.005-.005-.002-.001-.005-.004-.005-.003-.001-.001-.046-.035-.006-.004-.016-.011-.016-.01-.016-.01-.011-.007h-.001l-.001-.001-.001-.001h-.001l-.002-.001-.011-.007-.012-.006-.011-.006-.012-.006-.015-.007-.009-.005-.009-.004-.009-.004-.009-.003-.024-.009-.023-.008-.008-.003-.006-.002h-.003l-.007-.002-.007-.002-.008-.002h-.001l-.007-.002-.011-.002-.013-.003-.009-.001-.001-.001-.008-.001-.011-.001-.006-.001h-.007l-.012-.001-.003-.001h-.038l-.012.001h-.003l-.009.001h-.002l-.012.001-.006.001-.006.001-1.361-2.357.006-2.082-.201-.116-.082-.047zm1.728 2.84a.22.22 0 0 1 .18-.018.4.4 0 0 1 .07.027l.026.014a.8.8 0 0 1 .268.283.8.8 0 0 1 .11.373v.025l-.011.075a.22.22 0 0 1-.103.145l-.003.002-.009.004-.002.001h-.001l-.004.002-.005.002-.002.001-.012.004-.008.002-.007.001-.006.002-.006.001h-.006l-.006.001-.016.001-.017-.001-.017-.001-.009-.001-.006-.002-.007-.001-.007-.001-.006-.002-.009-.002-.019-.006a.4.4 0 0 1-.096-.047l-.045-.032h-.001v-.001l-.005-.003-.051-.045-.001-.002-.002-.001-.037-.039-.002-.002-.033-.039a1 1 0 0 1-.06-.087l-.001-.002-.026-.046-.025-.05-.001-.003-.026-.063-.001-.002a.8.8 0 0 1-.042-.213v-.025l.009-.079.001-.001a.2.2 0 0 1 .014-.046v-.001l.016-.032v-.001l.001-.001v-.001l.017-.024.001-.002h.001l.001-.001.019-.02.001-.002.001-.001h.001q.01-.009.022-.016zm-2.952-5.095.001-.598-.283-.163-.001.599zm-8.369-6.595c-.083.08-.133.209-.133.379a1.3 1.3 0 0 0 .192.65c.125.216.291.391.468.494a1 1 0 0 0 .094.046c.141.059.272.06.375.001l.005-.002.036-.025a.3.3 0 0 0 .047-.046l.004-.005.004-.005.004-.005.005-.007.016-.023.005-.008.002-.004.001-.002.005-.009.001-.003h.001l.001-.002.005-.012.005-.009.003-.009.003-.005.001-.005.001-.001.003-.009.003-.008.003-.01.003-.007.001-.002a.7.7 0 0 0 .028-.198v-.033l-.001-.014-.001-.012v-.007l-.004-.043-.001-.009-.008-.058v-.001l-.01-.05-.001-.006-.001-.005-.004-.016-.004-.014v-.003l-.001-.003-.009-.033v-.003l-.001-.002-.027-.084-.001-.004-.003-.006-.001-.004-.001-.003-.008-.02-.011-.03-.008-.018.156-.088.118-.068.081-.046 1.015-.578 1.811 1.046.001-.094v-.231l-1.73-1-.14-.08q-.058-.033-.1-.01l-.221.126-1.191.679-.005-.006a1.3 1.3 0 0 0-.349-.318l-.009-.005-.009-.005-.008-.004-.017-.01-.017-.007-.008-.004-.017-.008-.025-.01-.024-.008-.017-.006-.008-.002-.007-.002-.014-.004-.006-.002h-.002l-.029-.006-.009-.002-.011-.001-.013-.002h-.006l-.006-.001h-.005l-.014-.001h-.043l-.011.001h-.002l-.011.002-.009.001-.011.002-.006.001-.007.002h-.004l-.007.002-.009.003-.009.003q-.004 0-.008.003l-.005.002-.005.001-.008.004-.004.001-.002.001-.005.002-.003.002-.009.005h-.002l-.005.003-.005.003a.3.3 0 0 0-.061.046m.261.298a.22.22 0 0 1 .174-.014.4.4 0 0 1 .07.027l.026.014a.8.8 0 0 1 .302.349c.048.1.076.208.076.307l-.001.025a.4.4 0 0 1-.01.075.22.22 0 0 1-.098.142l-.003.002-.006.003-.001.001h-.002l-.004.003h-.001l-.005.002-.003.002-.005.002h-.001l-.006.002h-.002l-.003.001-.005.002-.006.002h-.007l-.004.002h-.004l-.007.001h-.004l-.004.001h-.044l-.005-.001h-.005l-.012-.003h-.001l-.006-.001-.007-.002h-.005l-.005-.002-.004-.001-.009-.003-.004-.001-.004-.001-.007-.003-.011-.004h-.001l-.001-.001-.003-.001-.008-.004-.009-.004-.01-.004-.009-.005-.01-.005-.009-.005-.009-.006-.01-.005-.018-.013-.029-.021-.005-.004h-.001l-.049-.044h-.001l-.001-.002a1 1 0 0 1-.073-.081l-.031-.042-.002-.003-.025-.038-.002-.003-.005-.01-.014-.022-.003-.006v-.001l-.006-.011-.007-.013-.019-.04-.025-.062h-.001v-.002a1 1 0 0 1-.028-.097l-.001-.002a.6.6 0 0 1-.014-.128l.001-.005v-.007q0-.043.009-.078v-.003l.004-.012.01-.032.001-.002.016-.033.02-.028.021-.022h.001l.022-.017h.001zm-.566-3.901c-.001.21.073.443.193.65.119.208.285.389.468.494.176.103.343.12.469.048l.008-.005.005-.004.006-.003.005-.004.008-.005.002-.002h.001v-.001l.005-.004a.4.4 0 0 0 .05-.05l.002-.001.005-.007.005-.007.01-.014.033-.06.005-.01.001-.003.002-.005v-.001l.001-.001.013-.04.001-.003a.2.2 0 0 0 .011-.043l.141.081.005.003 1.874 1.082v-.094l.001-.23-2.02-1.167-.002-.015-.005-.022-.003-.016-.001-.004v-.001l-.005-.022-.004-.015-.004-.016-.001-.004-.001-.004-.004-.014a1 1 0 0 0-.032-.1l-.005-.012-.001-.002-.004-.01-.006-.016-.005-.012-.002-.006-.002-.004-.004-.01-.005-.011-.012-.029h-.001l-.007-.016-.012-.025-.01-.02-.009-.018-.001-.001-.001-.001-.005-.01-.002-.004-.007-.013-.004-.008-.002-.003-.017-.03-.002-.003a1.5 1.5 0 0 0-.329-.387h-.001l-.01-.009-.053-.038-.016-.011-.029-.019q-.003 0-.005-.003l-.003-.001-.011-.007-.009-.005-.006-.003-.014-.008-.009-.005-.009-.004-.008-.004-.019-.01-.017-.007-.024-.01q-.006 0-.012-.004-.006 0-.012-.004l-.016-.005-.015-.004-.037-.009-.007-.001-.009-.002h-.001l-.011-.002h-.001l-.011-.001-.01-.002h-.023l-.015-.001h-.034l-.019.003-.014.002-.038.009-.007.002-.007.002-.007.002-.004.002-.004.002-.012.004-.008.005h-.003l-.004.003-.003.001-.003.002-.008.004c-.125.072-.194.223-.195.426m.395-.08a.22.22 0 0 1 .173-.015.4.4 0 0 1 .07.028l.026.014a.8.8 0 0 1 .268.282.76.76 0 0 1 .11.373l-.001.026a.4.4 0 0 1-.01.075.22.22 0 0 1-.099.142l-.002.001c-.072.041-.167.032-.268-.027l-.006-.003-.004-.002-.01-.006-.009-.006-.009-.006-.028-.02-.002-.003-.004-.003h-.001l-.049-.044-.039-.04-.002-.002-.032-.04h-.001l-.001-.001-.028-.038-.001-.001v-.001l-.001-.001-.002-.004h-.001l-.024-.038-.001-.001-.003-.005-.023-.04-.002-.004-.001-.003h-.001q-.013-.024-.024-.05l-.001-.002-.026-.063-.001-.002a1 1 0 0 1-.028-.099v-.003a.6.6 0 0 1-.014-.124v-.013a.4.4 0 0 1 .01-.078v-.003l.014-.043v-.001l.001-.002q.007-.018.015-.032h.001v-.002l.017-.024.002-.002.001-.001.021-.022.025-.019zm-.204-3.685c0 .21.074.442.193.65.12.207.285.388.468.493a.55.55 0 0 0 .355.086l1.403 2.43a.3.3 0 0 0 .1.106l1.87 1.08v-.094l.001-.232-1.812-1.046-1.361-2.357.012-.014.006-.008.005-.008h.001v-.001l.001-.002a.5.5 0 0 0 .054-.114l.001-.003.006-.022.006-.022.002-.008.001-.007a1 1 0 0 0 .014-.136v-.024l-.001-.001v-.017l-.007-.087-.002-.016-.003-.016v-.003l-.001-.005v-.003l-.002-.012-.001-.004v-.002l-.001-.002a1.54 1.54 0 0 0-.432-.797l-.007-.007-.008-.008-.03-.027-.011-.01h-.001l-.011-.009-.005-.004-.009-.007-.058-.044h-.001l-.012-.01-.025-.016-.033-.02-.008-.004-.009-.005-.009-.005-.016-.008-.017-.009-.009-.004-.016-.007-.082-.03-.008-.001-.008-.002-.016-.004-.015-.003-.012-.002-.011-.002h-.008l-.045-.004h-.034l-.008.001-.01.001h-.001l-.008.001-.007.002-.009.001-.008.002-.008.001-.008.002-.017.005-.006.002-.008.003-.006.003h-.001l-.007.003-.006.002-.004.002-.004.002-.005.003-.005.002h-.001l-.005.004-.005.002c-.12.07-.194.216-.195.425m.395-.081a.22.22 0 0 1 .173-.015.4.4 0 0 1 .096.041c.105.061.2.165.268.283a.8.8 0 0 1 .111.373l-.001.026a.3.3 0 0 1-.011.074.22.22 0 0 1-.099.143l-.007.004-.007.004-.007.003-.005.002-.004.001-.003.001-.003.001-.004.002h-.003l-.006.002-.007.002h-.001l-.006.001h-.003l-.006.001-.011.001h-.006l-.006.001h-.027l-.008-.002-.018-.002-.018-.004-.009-.003a.3.3 0 0 1-.066-.025l-.008-.004-.012-.007-.009-.005-.01-.005-.009-.006h-.001l-.007-.006h-.002v-.001h-.001l-.007-.005-.004-.003-.024-.018-.006-.004a1 1 0 0 1-.09-.086l-.001-.002h-.001l-.001-.001a1 1 0 0 1-.063-.081l-.002-.003a1 1 0 0 1-.054-.09l-.001-.001-.026-.051v-.001l-.025-.062-.001-.003-.001-.003a1 1 0 0 1-.027-.096.6.6 0 0 1-.014-.113v-.026a.3.3 0 0 1 .024-.126l.015-.033h.001l.001-.003.018-.025.001-.002a.2.2 0 0 1 .044-.039h.001zm3.982 6.655.001-.324-.521-.301-.001.325z" fill="#F3F5FF"/><path d="m203.995 64.789-.018-.004zh.004z" fill="#DBE8FA"/><path d="M102.373 49.448 65.375 27.922l34.976-20.399 36.998 21.526z" fill="#E6E6E6"/><path d="M128.844 30.634 94.57 10.75 102.084 0l34.274 19.884z" fill="url(#n)"/><path d="M103.909 47.106 67.867 26.161l26.706-15.419 34.274 19.884z" fill="url(#o)"/><path d="m67.873 28.253-.006-2.085 34.274 19.884.006 2.084zm68.495-8.366 1.083 1.053-7.993 11.436-27.304 15.764-.006-2.084 26.707-15.419z" fill="#2A87DB"/><path d="M101.817 16.953c-.135.676-1.204.674-1.695.405-.19-.213-4.295-2.223-4.099-2.608.041.365-.163.98.29 1.19.236.1 3.898 2.322 4.095 2.312.463.116 1.313.064 1.406-.52z" fill="#CED8EF"/><path d="M101.532 16.545c.388.224.39.59.004.815-.385.224-1.018.224-1.407 0l-3.805-2.197c-.388-.224-.39-.59-.005-.815.386-.224 1.02-.224 1.407 0zm6.805 3.93c.388.224.39.59.004.815-.385.224-1.019.224-1.407 0l-3.805-2.197c-.389-.225-.391-.591-.005-.815.386-.225 1.019-.225 1.407 0z" fill="#EEF0FD"/><path d="M115.432 24.845c-.178.649-1.201.642-1.693.376-.191-.213-4.295-2.222-4.098-2.608.04.366-.164.981.29 1.19L113.736 26c.499.257 1.287.26 1.646-.225.094-.11.035-.82.052-.959z" fill="#CED8EF"/><path d="M115.149 24.404c.389.225.391.591.005.816s-1.019.224-1.408 0l-3.805-2.198c-.388-.224-.39-.59-.005-.815.386-.224 1.019-.224 1.408 0z" fill="#EEF0FD"/><path d="M122.244 28.782c-.177.648-1.201.643-1.693.376-.191-.212-4.294-2.223-4.098-2.607.041.365-.164.98.29 1.19l3.806 2.197c.499.256 1.287.26 1.646-.226.094-.11.034-.82.051-.959z" fill="#CED8EF"/><path d="M121.954 28.342c.388.224.39.59.004.815s-1.019.224-1.407 0l-3.805-2.197c-.389-.224-.391-.591-.005-.815s1.019-.224 1.407 0z" fill="#EEF0FD"/><path d="M98.525 18.815c-.02.241-.212.422-.41.54l-3.17 1.842c-.315.178-.683.243-1.042.24-.337-.006-.682-.073-.978-.24l-3.191-1.843c-.28-.162-.42-.375-.42-.588.03.482-.168 1.08.417 1.368.757.34 3.386 2.248 4.25 2.082a2 2 0 0 0 .961-.24l3.171-1.842q.076-.045.145-.101c.392-.241.243-.886.27-1.26z" fill="#CED8EF"/><path d="M98.108 18.17c.556.321.56.848.006 1.17l-3.171 1.842c-.554.322-1.462.322-2.02 0l-3.191-1.843c-.557-.321-.56-.848-.006-1.17l3.17-1.842c.554-.321 1.463-.321 2.02 0z" fill="#EEF0FD"/><path d="M105.346 22.733c-.02.241-.212.422-.41.54-.691.308-3.352 2.209-4.133 2.082-.364.005-.738-.06-1.057-.24l-3.192-1.843c-.218-.125-.419-.327-.42-.588.03.482-.168 1.08.418 1.367.756.34 3.386 2.249 4.249 2.083.332-.006.671-.075.962-.24l3.171-1.842q.076-.045.145-.101c.391-.241.242-.886.27-1.26z" fill="#CED8EF"/><path d="M104.924 22.104c.557.32.56.847.006 1.169l-3.171 1.843c-.553.321-1.462.321-2.019 0l-3.191-1.843c-.558-.322-.56-.848-.007-1.17l3.171-1.842c.554-.322 1.462-.322 2.019 0z" fill="#EEF0FD"/><path d="M112.146 26.663c-.019.241-.211.422-.409.54l-3.171 1.842c-.314.178-.683.243-1.041.24-.338-.006-.683-.073-.978-.24l-3.192-1.843c-.275-.165-.414-.35-.42-.589.029.483-.168 1.081.418 1.369.757.34 3.386 2.247 4.249 2.082.332-.006.671-.075.962-.24l3.171-1.843q.076-.044.145-.1c.392-.241.242-.886.27-1.26z" fill="#CED8EF"/><path d="M111.74 26.037c.557.322.56.848.007 1.17l-3.171 1.842c-.553.322-1.462.322-2.019 0l-3.192-1.842c-.557-.322-.56-.848-.007-1.17l3.171-1.843c.554-.321 1.463-.321 2.02 0z" fill="#EEF0FD"/><path d="M91.63 22.808c-.019.24-.211.421-.41.538l-3.17 1.843c-.314.178-.683.244-1.041.24-.337-.005-.682-.072-.978-.24l-3.192-1.843c-.28-.161-.42-.375-.42-.588.03.482-.167 1.08.418 1.368.757.34 3.386 2.248 4.249 2.083.332-.007.67-.075.962-.24l3.17-1.843q.078-.045.146-.1c.392-.242.242-.887.27-1.26z" fill="#CED8EF"/><path d="M91.213 22.17c.557.322.56.847.006 1.17l-3.17 1.842c-.554.322-1.462.322-2.02 0l-3.191-1.843c-.557-.321-.56-.847-.007-1.169l3.171-1.843c.554-.322 1.462-.321 2.019 0z" fill="#EEF0FD"/><path d="M98.443 26.733c-.02.242-.211.422-.41.54l-3.17 1.842c-.314.178-.683.244-1.041.24-.338-.006-.682-.073-.978-.24l-3.192-1.843c-.28-.162-.42-.375-.42-.588.03.482-.168 1.08.418 1.368.756.34 3.386 2.248 4.248 2.082a2 2 0 0 0 .962-.24l3.171-1.842q.076-.045.145-.1c.392-.242.243-.887.27-1.26q0 .02-.003.041" fill="#CED8EF"/><path d="M98.025 26.108c.557.32.56.847.007 1.169l-3.171 1.843c-.554.321-1.462.321-2.019 0l-3.192-1.843c-.557-.322-.56-.848-.006-1.17l3.17-1.842c.554-.322 1.462-.322 2.02 0z" fill="#EEF0FD"/><path d="M105.26 30.671c-.02.242-.212.422-.41.54l-3.171 1.842c-.314.178-.682.243-1.041.24-.337-.006-.682-.073-.978-.24l-3.19-1.843c-.28-.162-.421-.376-.42-.589.029.483-.168 1.081.417 1.369.757.34 3.386 2.247 4.249 2.082.332-.006.671-.075.962-.24l3.171-1.843q.076-.044.145-.1c.39-.238.243-.89.27-1.26z" fill="#CED8EF"/><path d="M104.838 30.037c.557.322.56.848.007 1.17l-3.172 1.843c-.553.321-1.461.32-2.019 0l-3.191-1.843c-.557-.322-.56-.848-.007-1.17l3.171-1.843c.554-.321 1.462-.321 2.019 0z" fill="#EEF0FD"/><path d="M84.74 26.766c-.004.258-.202.457-.414.58-.687.31-3.354 2.21-4.133 2.083-.363.005-.737-.06-1.056-.24l-3.192-1.843c-.28-.161-.42-.375-.42-.588.03.482-.168 1.08.417 1.368.512.237 3.358 2.103 3.894 2.064.446.053.921 0 1.317-.222.069-.044 3.159-1.828 3.225-1.877.19-.12.357-.312.36-.546z" fill="#CED8EF"/><path d="M84.33 26.186c.557.321.56.847.006 1.169l-3.17 1.843c-.554.321-1.462.321-2.02 0l-3.192-1.843c-.556-.322-.56-.848-.006-1.17l3.171-1.842c.554-.322 1.462-.322 2.02 0z" fill="#EEF0FD"/><path d="M91.552 30.71c-.003.26-.201.458-.413.582-.688.31-3.354 2.209-4.133 2.082-.363.006-.738-.06-1.057-.24l-3.192-1.842c-.28-.162-.42-.376-.42-.589.03.482-.167 1.08.418 1.368.484.226 3.36 2.09 3.859 2.06.457.059.945.01 1.352-.217.069-.045 3.158-1.828 3.225-1.878.19-.12.356-.312.359-.546z" fill="#CED8EF"/><path d="M91.139 30.107c.556.322.56.848.006 1.17l-3.17 1.843c-.554.321-1.463.321-2.02 0l-3.192-1.843c-.557-.322-.56-.848-.006-1.17l3.17-1.842c.554-.322 1.463-.322 2.02 0z" fill="#EEF0FD"/><path d="M98.37 34.67c-.02.242-.212.422-.41.54l-3.171 1.843c-.315.178-.683.243-1.042.24a2.06 2.06 0 0 1-.978-.24l-3.191-1.843c-.28-.162-.42-.376-.42-.589.029.482-.168 1.081.418 1.368.756.34 3.385 2.248 4.248 2.083a2 2 0 0 0 .962-.24l3.171-1.843q.076-.045.145-.1c.392-.241.243-.886.27-1.26z" fill="#CED8EF"/><path d="M97.955 34.045c.557.321.56.848.007 1.17l-3.171 1.842c-.554.322-1.462.322-2.02 0l-3.191-1.843c-.557-.321-.56-.848-.007-1.17l3.171-1.842c.554-.321 1.462-.321 2.02 0z" fill="#EEF0FD"/><path d="M118.963 30.612c-.019.242-.212.422-.41.54l-3.171 1.842c-.314.178-.682.243-1.041.24-.337-.006-.682-.073-.978-.24l-3.192-1.843c-.28-.162-.42-.375-.419-.588.029.482-.168 1.08.417 1.367.757.34 3.386 2.249 4.249 2.083.333-.006.671-.075.962-.24l3.171-1.842q.1-.06.188-.136c.335-.222.202-.895.227-1.224z" fill="#CED8EF"/><path d="M118.545 29.975c.557.321.56.848.007 1.17l-3.171 1.842c-.554.322-1.463.322-2.02 0l-3.192-1.843c-.556-.321-.559-.848-.006-1.17l3.171-1.842c.554-.322 1.462-.322 2.019 0z" fill="#EEF0FD"/><path d="M112.359 34.25c-.021.377-.318.667-.628.847-.52.203-9.42 5.694-9.819 5.528-.756.146-1.585.08-2.266-.296L97.52 39.1c-.341-.195-.636-.5-.64-.898 0 .657-.136 1.272.638 1.678 1.516.818 2.846 2.054 4.709 1.443.344-.074 9.585-5.442 9.861-5.725.372-.297.255-.98.273-1.388z" fill="#CED8EF"/><path d="M111.728 33.305c.85.49.855 1.294.01 1.785l-9.003 5.231c-.844.491-2.231.491-3.082 0-.839-.612-4.167-1.73-2.135-3.012l9.003-5.232c1.817-1.062 3.684.335 5.207 1.228" fill="#EEF0FD"/><path d="M108.625 20.887c-.134.677-1.204.674-1.695.404-.19-.212-4.294-2.222-4.098-2.607.041.365-.164.98.291 1.19.252.107 3.87 2.31 4.093 2.312.464.116 1.314.064 1.407-.52z" fill="#CED8EF"/><path d="M131.06 18.614c.557.325.667 1.133.244 1.797l-3.829 5.998c-.424.663-1.226.939-1.784.614L99.435 11.706c-.557-.326-.667-1.134-.244-1.797l3.83-5.998c.423-.664 1.225-.94 1.783-.614z" fill="#EEF0FD"/><defs><linearGradient id="a" x1="42.49" y1="77.553" x2="46.921" y2="141.403" gradientUnits="userSpaceOnUse"><stop stop-color="#FF578F"/><stop offset=".996" stop-color="#E8156B"/></linearGradient><linearGradient id="b" x1="14.865" y1="79.111" x2="99.057" y2="85.96" gradientUnits="userSpaceOnUse"><stop stop-color="#FFDB59"/><stop offset=".996" stop-color="#FFB55C"/></linearGradient><linearGradient id="c" x1="55.426" y1="119.139" x2="53.16" y2="120.952" gradientUnits="userSpaceOnUse"><stop stop-color="#4FEEF2"/><stop offset=".996" stop-color="#3D9AFF"/></linearGradient><linearGradient id="d" x1="43.547" y1="104.186" x2="59.056" y2="130.672" gradientUnits="userSpaceOnUse"><stop stop-color="#4FEEF2"/><stop offset=".996" stop-color="#3D9AFF"/></linearGradient><linearGradient id="e" x1="119.396" y1="4.767" x2="93.489" y2="35.584" gradientUnits="userSpaceOnUse"><stop stop-color="#4FEEF2"/><stop offset=".996" stop-color="#3D9AFF"/></linearGradient><linearGradient id="f" x1="115.887" y1="1.811" x2="89.98" y2="32.628" gradientUnits="userSpaceOnUse"><stop stop-color="#4FEEF2"/><stop offset=".996" stop-color="#3D9AFF"/></linearGradient><linearGradient id="g" x1="112.9" y1="-.696" x2="86.993" y2="30.12" gradientUnits="userSpaceOnUse"><stop stop-color="#4FEEF2"/><stop offset=".996" stop-color="#3D9AFF"/></linearGradient><linearGradient id="h" x1="148.105" y1="8.832" x2="129.346" y2="124.711" gradientUnits="userSpaceOnUse"><stop stop-color="#C2DEFF"/><stop offset=".996" stop-color="#07F"/></linearGradient><linearGradient id="i" x1="144.127" y1="71.002" x2="144.027" y2="71.154" gradientUnits="userSpaceOnUse"><stop stop-color="#A6DEFF"/><stop offset=".996" stop-color="#3D9AFF"/></linearGradient><linearGradient id="j" x1="132.699" y1="52.418" x2="132.699" y2="65.339" gradientUnits="userSpaceOnUse"><stop stop-color="#69AFFF"/><stop offset="1" stop-color="#1381FF"/></linearGradient><linearGradient id="k" x1="133.119" y1="39.277" x2="133.119" y2="43.773" gradientUnits="userSpaceOnUse"><stop stop-color="#64ADFF"/><stop offset="1" stop-color="#0D7EFF"/></linearGradient><linearGradient id="l" x1="143.404" y1="45.172" x2="143.404" y2="49.668" gradientUnits="userSpaceOnUse"><stop stop-color="#64ADFF"/><stop offset="1" stop-color="#0D7EFF"/></linearGradient><linearGradient id="m" x1="159.178" y1="88.448" x2="158.555" y2="99.133" gradientUnits="userSpaceOnUse"><stop stop-color="#59A7FF"/><stop offset=".996" stop-color="#0378FF"/></linearGradient><linearGradient id="n" x1="141.122" y1="-16.16" x2="102.047" y2="31.777" gradientUnits="userSpaceOnUse"><stop stop-color="#64ACFF"/><stop offset=".996" stop-color="#0D7EFF"/></linearGradient><linearGradient id="o" x1="98.357" y1="10.742" x2="98.357" y2="47.106" gradientUnits="userSpaceOnUse"><stop stop-color="#68AEFF"/><stop offset="1" stop-color="#0F7FFF"/></linearGradient></defs></svg>