<svg width="30" height="30" viewBox="0 0 30 30" fill="none" xmlns="http://www.w3.org/2000/svg"><rect width="30" height="30" rx="7" fill="#FDC500"/><g clip-path="url(#a)" fill="#fff"><path d="M15.184 19.625a.32.32 0 0 1-.196.063.33.33 0 0 1-.195-.063l-2-1.43-7.2 6.766h18.813l-7.203-6.773zm2.574-1.832L25 24.606V12.64zM14.996 5.04l-2.715 1.933h5.434zm8.714 6.198v1.5l1.056-.75zM5 12.633v11.969l7.238-6.801z"/><path d="M23.04 13.215V7.64H6.952v5.57l8.031 5.734zm-11.43.437a3.52 3.52 0 0 1 .355-2.695 3.55 3.55 0 0 1 2.156-1.656 3.55 3.55 0 0 1 3.363.847c.551.52.895 1.145.993 1.809.097.648-.059 1.266-.434 1.742-.246.313-1 .926-1.645.926a.9.9 0 0 1-.289-.047.76.76 0 0 1-.465-.469 1.68 1.68 0 0 1-1.617-.04 1.68 1.68 0 0 1-.789-1.026 1.68 1.68 0 0 1 .168-1.285c.227-.39.59-.672 1.028-.79a1.7 1.7 0 0 1 1.172.11.335.335 0 0 1 .32-.246h.004a.335.335 0 0 1 .328.34l-.04 2.375c-.003.223.04.379.11.406.242.086.914-.32 1.184-.664.57-.723.363-1.84-.496-2.652a2.88 2.88 0 0 0-2.73-.692 2.87 2.87 0 0 0-1.755 1.344 2.87 2.87 0 0 0-.289 2.191c.2.747.676 1.368 1.344 1.754a2.87 2.87 0 0 0 2.191.29 2.86 2.86 0 0 0 1.375-.833.334.334 0 1 1 .492.454 3.54 3.54 0 0 1-2.617 1.144c-.617 0-1.222-.16-1.77-.477a3.55 3.55 0 0 1-1.648-2.16"/><path d="M14.617 11.614a1.02 1.02 0 0 0-.723 1.254 1.023 1.023 0 0 0 1.254.727c.157-.043.301-.121.422-.227l.024-1.5a1 1 0 0 0-.707-.285.8.8 0 0 0-.27.031m-8.327-.376-1.048.746 1.047.75z"/></g><defs><clipPath id="a"><path fill="#fff" d="M5 5h20v20H5z"/></clipPath></defs></svg>