<svg width="259" height="234" viewBox="0 0 259 234" fill="none" xmlns="http://www.w3.org/2000/svg">
<path d="M137.495 28.8039C129.141 28.991 120.768 28.009 112.677 25.787C93.1684 20.4303 74.3662 1.93962 52.9128 7.64783C40.5746 10.9303 31.4252 21.8432 29.9656 34.4579C28.7473 44.9833 32.0431 55.7158 31.9196 66.3448C31.7743 78.7891 29.9381 91.6593 25.1292 103.176C14.0451 129.723 5.47276 159.407 33.0443 179.191C46.5558 188.887 62.1206 184.652 76.9422 181.25C90.5022 178.137 103.46 182.095 115.089 189.172C130.18 198.358 143.461 210.521 159.553 218.054C184.582 229.77 222.355 224.906 234.69 196.986C238.141 189.175 238.701 180.332 237.688 171.853C235.681 155.045 228.194 139.761 229.465 122.468C229.696 119.325 230.062 116.19 230.539 113.066C232.566 99.7724 236.679 86.731 241.292 74.133C251.886 45.2021 234.618 14.2871 202.206 15.6824C187.088 16.3329 172.871 22.1137 158.382 25.8822C151.552 27.6583 144.531 28.6461 137.495 28.8039Z" fill="url(#paint0_linear_4492_6636)"/>
<path d="M80.5595 233.916H68.8049C68.5953 233.916 68.4258 233.747 68.4258 233.537V221.782C68.4258 221.573 68.5953 221.403 68.8049 221.403H80.5595C80.7691 221.403 80.9386 221.573 80.9386 221.782V233.537C80.9386 233.747 80.7691 233.916 80.5595 233.916Z" fill="#CFCFCF"/>
<path d="M111.964 225.198H84.3997C84.302 225.198 84.2227 225.119 84.2227 225.021V223.601C84.2227 223.503 84.302 223.424 84.3997 223.424H111.964C112.061 223.424 112.141 223.503 112.141 223.601V225.021C112.141 225.119 112.061 225.198 111.964 225.198Z" fill="#CFCFCF"/>
<path d="M104.985 231.897H84.3997C84.302 231.897 84.2227 231.818 84.2227 231.72V230.3C84.2227 230.202 84.302 230.123 84.3997 230.123H104.985C105.082 230.123 105.162 230.202 105.162 230.3V231.72C105.161 231.818 105.082 231.897 104.985 231.897Z" fill="#CFCFCF"/>
<path d="M134.099 12.5136H122.344C122.134 12.5136 121.965 12.3441 121.965 12.1345V0.379098C121.965 0.169508 122.134 0 122.344 0H134.099C134.308 0 134.478 0.169508 134.478 0.379098V12.1337C134.478 12.3433 134.308 12.5136 134.099 12.5136Z" fill="#CFCFCF"/>
<path d="M165.507 3.792H137.943C137.845 3.792 137.766 3.71267 137.766 3.61497V2.1946C137.766 2.0969 137.845 2.01758 137.943 2.01758H165.507C165.604 2.01758 165.684 2.0969 165.684 2.1946V3.61497C165.684 3.71267 165.604 3.792 165.507 3.792Z" fill="#CFCFCF"/>
<path d="M158.528 10.4912H137.943C137.845 10.4912 137.766 10.4119 137.766 10.3142V8.89382C137.766 8.79612 137.845 8.7168 137.943 8.7168H158.528C158.625 8.7168 158.705 8.79612 158.705 8.89382V10.3142C158.704 10.4119 158.625 10.4912 158.528 10.4912Z" fill="#CFCFCF"/>
<g clip-path="url(#clip0_4492_6636)">
<path d="M131.426 64.8532L137.069 86.0806L254.837 86.6146C258.213 86.629 259.887 89.2121 258.56 92.3724L206.307 216.778C205.325 219.131 202.179 221.007 199.293 220.992L6.14004 220.126C3.25393 220.126 1.20479 218.207 1.59441 215.855L21.1046 96.2542L22.8507 85.5611L25.8522 67.1621C26.4006 63.8287 29.6475 61.1302 33.1252 61.1446L126.751 61.5631C129.089 61.5631 130.907 62.8474 131.426 64.8532Z" fill="#FFCD20"/>
<path d="M33.125 61.1445L126.751 61.563C129.088 61.563 130.907 62.8473 131.426 64.8532L137.068 86.0806L252.629 86.6001" stroke="#121D30" stroke-width="1.08229" stroke-miterlimit="10"/>
<path d="M21.9375 111.262L189.004 111.262V38.7347L21.9375 38.7347V111.262Z" fill="white"/>
<path d="M37.0703 38.7451H156.013" stroke="#121D30" stroke-width="0.895837" stroke-miterlimit="10"/>
<path d="M87.6225 59.946L97.3775 78.6769H197.785C200.672 78.6769 203.009 81.0147 203.009 83.9008V215.753C203.009 218.639 200.672 220.977 197.785 220.977H5.22387C2.33775 220.977 0 218.639 0 215.753V62.3704C0 59.4842 2.33775 57.1465 5.22387 57.1465H83.0047C84.9528 57.1465 86.7422 58.2288 87.6369 59.9604L87.6225 59.946Z" fill="#F3D777"/>
<path d="M5.23047 57.1465H83.0113C84.9594 57.1465 86.7488 58.2288 87.6435 59.9604L97.3986 78.6913H197.807" stroke="#121D30" stroke-width="1.08229" stroke-miterlimit="10"/>
<path d="M190.427 111.175C205.665 111.175 218.018 98.8217 218.018 83.5835C218.018 68.3452 205.665 55.9922 190.427 55.9922C175.189 55.9922 162.836 68.3452 162.836 83.5835C162.836 98.8217 175.189 111.175 190.427 111.175Z" fill="#71B3FF"/>
<path d="M202.187 93.8447L191.927 83.5846L202.187 73.3244C202.606 72.9059 202.606 72.2421 202.187 71.8236C201.769 71.4051 201.105 71.4051 200.687 71.8236L190.426 82.0838L180.166 71.8236C179.748 71.4051 179.084 71.4051 178.665 71.8236C178.247 72.2421 178.247 72.9059 178.665 73.3244L188.926 83.5846L178.665 93.8447C178.247 94.2632 178.247 94.927 178.665 95.3455C179.084 95.764 179.748 95.764 180.166 95.3455L190.426 85.0853L200.687 95.3455C201.105 95.764 201.769 95.764 202.187 95.3455C202.606 94.927 202.606 94.2632 202.187 93.8447Z" fill="white"/>
<path d="M79.1992 176.358C96.1407 153.442 117.498 162.851 122.909 176.358H79.1992Z" fill="#666666"/>
<path d="M79.1992 176.358C96.1407 153.442 117.498 162.851 122.909 176.358" stroke="#212121" stroke-width="1.08229" stroke-miterlimit="10"/>
<path d="M75.6516 128.404C75.6516 134.378 72.982 139.227 69.6774 139.227C66.3728 139.227 63.7031 134.378 63.7031 128.404C63.7031 122.43 66.3728 117.581 69.6774 117.581C72.982 117.581 75.6516 122.43 75.6516 128.404Z" fill="#666666"/>
<path d="M138.413 128.404C138.413 134.378 135.744 139.227 132.439 139.227C129.134 139.227 126.465 134.378 126.465 128.404C126.465 122.43 129.134 117.581 132.439 117.581C135.744 117.581 138.413 122.43 138.413 128.404Z" fill="#666666"/>
</g>
<defs>
<linearGradient id="paint0_linear_4492_6636" x1="19.7562" y1="84.6094" x2="248.93" y2="130.757" gradientUnits="userSpaceOnUse">
<stop stop-color="#E2F4FF"/>
<stop offset="1" stop-color="#D7ECFF"/>
</linearGradient>
<clipPath id="clip0_4492_6636">
<rect width="259" height="197.887" fill="white" transform="translate(0 23.1035)"/>
</clipPath>
</defs>
</svg>
