<svg width="45" height="45" viewBox="0 0 45 45" fill="none" xmlns="http://www.w3.org/2000/svg"><g clip-path="url(#a)"><path fill-rule="evenodd" clip-rule="evenodd" d="M22.498.669c-11.81 0-21.385 9.55-21.385 21.33 0 10.857 8.133 19.82 18.653 21.16-.107-.675.066-1.474.555-2.28l9.392-15.48c.829-1.367 2.67-1.367 3.5 0l6.006 9.902a21.2 21.2 0 0 0 4.667-13.302c0-11.78-9.575-21.33-21.388-21.33" fill="#D1E8FF"/><path d="M38.096 6.443C33.93 2.288 28.39 0 22.499 0 16.61 0 11.071 2.288 6.905 6.443s-6.46 9.68-6.46 15.556a21.94 21.94 0 0 0 5.55 14.594 22.05 22.05 0 0 0 13.687 7.23.667.667 0 0 0 .748-.58.67.67 0 0 0-.169-.534l.04-.041a.67.67 0 0 0-.09-.942c-1.405-1.161-2.69-3.362-3.668-6.26h7.467a.67.67 0 0 0 0-1.337h-7.88c-.626-2.191-1.07-4.621-1.319-7.193h14.38c.369 0 .668-.3.668-.67 0-.15.246-.288.513-.4.036.231.103.396.224.4.368.016 1.094-1.446 1.11-1.815a54 54 0 0 0-.064-6.049h11.262a21 21 0 0 1 .005 7.195H33.74a.669.669 0 1 0 0 1.339h8.89a20.45 20.45 0 0 1-3.931 7.947.669.669 0 0 0 1.044.836c3.15-3.934 4.814-8.679 4.814-13.72 0-5.877-2.294-11.401-6.46-15.556m.102 2.088h-8.331a28 28 0 0 0-.67-1.865c-.886-2.196-1.94-3.886-3.103-5.016a20.73 20.73 0 0 1 12.104 6.88m-8.007 8.533H14.81c.248-2.586.692-5.022 1.314-7.195h12.75c.622 2.173 1.067 4.609 1.316 7.195M22.499 1.338c1.975 0 3.964 2.124 5.456 5.828q.265.66.503 1.365H16.542q.238-.706.503-1.365c1.492-3.704 3.48-5.828 5.454-5.828m-3.594.312c-1.163 1.13-2.217 2.82-3.101 5.017q-.36.892-.67 1.864H6.802A20.73 20.73 0 0 1 18.905 1.65M5.74 9.869h8.997c-.6 2.193-1.03 4.626-1.27 7.195H2.382A20.6 20.6 0 0 1 5.74 9.87M1.783 22c0-1.227.109-2.428.315-3.597H13.36a54 54 0 0 0 .002 7.196H2.101a20.6 20.6 0 0 1-.318-3.6m3.957 12.13a20.7 20.7 0 0 1-3.355-7.193H13.47c.245 2.587.68 5.02 1.275 7.193zm9.402 1.338c.964 3.008 2.252 5.414 3.768 6.887A20.66 20.66 0 0 1 6.8 35.467zm-.44-9.87a52 52 0 0 1-.002-7.195h15.602a53 53 0 0 1 .067 5.99c-.01.204-.052.754-.025 1.206zm16.832-8.533c-.24-2.57-.67-5.002-1.27-7.195h8.997a20.6 20.6 0 0 1 3.358 7.195z" fill="#07F"/><path fill-rule="evenodd" clip-rule="evenodd" d="M29.712 25.399 20.32 40.878c-.49.807-.662 1.606-.555 2.28.17 1.073 1.05 1.836 2.489 1.836q4.151.005 8.3.005h1.814q4.15 0 8.3-.005c2.35-.002 3.202-2.027 1.934-4.116L39.218 35.3l-6.005-9.9c-.832-1.369-2.672-1.369-3.501-.001" fill="#FDC500"/><path d="M31.462 38.013c-.37 0-.669-.3-.669-.669v-6.47a.669.669 0 1 1 1.338 0v6.47c0 .37-.3.67-.669.67m0 3.599c-.37 0-.669-.3-.669-.669v-.015a.669.669 0 1 1 1.338 0v.015c0 .37-.3.669-.669.669" fill="#957607"/></g><defs><clipPath id="a"><path fill="#fff" d="M0 0h45v45H0z"/></clipPath></defs></svg>