<svg width="108" height="34" viewBox="0 0 108 34" fill="none" xmlns="http://www.w3.org/2000/svg"><path d="M13.129 15.344h6.014a6.74 6.74 0 0 0 6.74-6.737V.13h-9.258a3.5 3.5 0 0 0-3.496 3.496z" fill="#3EA3DC"/><path d="M10.254.13H3.498A3.5 3.5 0 0 0 0 3.628v19.864a3.493 3.493 0 0 0 3.496 3.495h5.012a1.75 1.75 0 0 0 1.749-1.747z" fill="#FC0"/><path d="M20.284 18.507h-7.155v6.736a1.75 1.75 0 0 0 1.749 1.747h7.632a3.366 3.366 0 0 0 3.365-3.363V15.51a6.72 6.72 0 0 1-5.591 2.997" fill="#86BC25"/><path d="M35.036.686a2.27 2.27 0 0 1 .683 1.672 2.22 2.22 0 0 1-.678 1.658 2.42 2.42 0 0 1-1.77.658 2.37 2.37 0 0 1-1.728-.663 2.22 2.22 0 0 1-.679-1.658 2.27 2.27 0 0 1 .68-1.672A2.34 2.34 0 0 1 33.271 0a2.4 2.4 0 0 1 1.764.685m.666 5.689h-4.818V26.84H35.7zm18.683-4.1q2.765 2.073 2.765 6.207 0 4.318-2.784 6.49-2.784 2.17-7.421 2.162H43.9v9.632h-4.966V.205h7.676q5 0 7.774 2.07M50.6 12.293q1.355-1.102 1.355-3.817 0-4.628-5.382-4.628H43.9v9.556h2.673q2.67.005 4.027-1.104zM71.091 6.11l-.828 4.664a7.3 7.3 0 0 0-1.768-.226c-1.18 0-2.027.563-2.786 1.261-.795.73-1.583 1.931-1.619 3.856v11.172h-4.817V6.375h4.178l.452 3.912q.714-2.145 2.074-3.292a4.7 4.7 0 0 1 3.125-1.147 7.2 7.2 0 0 1 1.99.263m17.481 9.745q0-4.741-2.297-7.393t-6.474-2.651q-2.748 0-4.742 1.381a8.7 8.7 0 0 0-3.049 3.8q-1.056 2.43-1.054 5.475 0 4.816 2.466 7.6 2.466 2.785 7.019 2.782 4.065 0 7.377-2.67l-.534-3.957q-.686.651-1.451 1.209c-.772.544-1.606.992-2.486 1.335a7.1 7.1 0 0 1-2.483.434q-2.107 0-3.387-1.242-1.281-1.242-1.506-4.146h12.495c.068-1.045.106-1.706.106-1.957m-4.78-1.16h-7.83q.187-2.862 1.186-4.158 1-1.298 2.765-1.298 3.877 0 3.877 5.229zm22.399-6.14Q108 11.303 108 16.267q0 3.087-.923 5.474-.922 2.388-2.71 3.743-1.789 1.354-4.234 1.354-3.162 0-5.012-2.181v8.035l-4.816.778V6.375h4.22l.263 2.446a7.8 7.8 0 0 1 2.673-2.256 6.96 6.96 0 0 1 3.161-.753q3.764-.003 5.57 2.744m-3.237 7.75q0-3.65-.94-5.267-.94-1.62-2.824-1.617c-.81.002-1.6.258-2.257.732a6.4 6.4 0 0 0-1.808 1.976v8.955q1.394 2.072 3.652 2.072 4.177 0 4.177-6.852" fill="#575756"/></svg>