<svg width="30" height="30" viewBox="0 0 30 30" fill="none" xmlns="http://www.w3.org/2000/svg">
<path d="M22.4762 0H7.5C3.38095 0 0 3.38095 0 7.52381V22.5C0 26.619 3.38095 30 7.5 30H22.4762C26.619 30 30 26.619 30 22.4762V7.52381C30 3.38095 26.619 0 22.4762 0ZM14.1905 6.16667C14.2381 5.42857 14.9286 5.69048 15.2857 5.64286C19.7619 5.78571 23.619 9.80952 23.5714 14.1429C23.5714 14.5714 23.7143 15.1905 23.0714 15.1905C22.4524 15.1905 22.619 14.5476 22.5476 14.119C21.9524 9.52381 19.8095 7.35714 15.1429 6.64286C14.7619 6.59524 14.1667 6.66667 14.1905 6.16667ZM20.881 14.3333C20.1667 14.4286 20.3095 13.8095 20.2381 13.4048C19.7619 10.5952 18.7619 9.57143 15.881 8.95238C15.4524 8.85714 14.7857 8.92857 14.9048 8.28571C15 7.66667 15.5952 7.88095 16.0476 7.92857C18.9286 8.2619 21.2857 10.7143 21.2619 13.4048C21.2143 13.6905 21.4048 14.2381 20.881 14.3333ZM19.0952 12.8571C19.0952 13.2381 19.0476 13.5952 18.619 13.6429C18.3095 13.6905 18.119 13.4286 18.0714 13.119C17.9524 11.9762 17.3333 11.2857 16.1429 11.0952C15.7857 11.0476 15.4524 10.9286 15.619 10.4524C15.7381 10.1429 16.0238 10.0952 16.3333 10.0952C17.619 10.0714 19.0952 11.5714 19.0952 12.8571ZM23.619 21.6429C23.119 23 21.4286 24.381 19.9762 24.3571C19.7619 24.3095 19.3571 24.2381 19 24.0952C12.619 21.4048 7.97619 16.9762 5.35714 10.6429C4.47619 8.52381 5.40476 6.71429 7.61905 6C8.02381 5.85714 8.40476 5.85714 8.80952 6C9.7619 6.33333 12.1667 9.59524 12.2143 10.5476C12.2619 11.2857 11.7381 11.6905 11.2381 12.0238C10.2619 12.6667 10.2619 13.4762 10.6905 14.4048C11.619 16.4524 13.2143 17.881 15.2857 18.7857C16.0238 19.119 16.7619 19.0952 17.2619 18.3333C18.1667 16.9762 19.2857 17.0476 20.5 17.881C21.119 18.3095 21.7381 18.7143 22.3095 19.1667C23.0952 19.8095 24.0952 20.3333 23.619 21.6429Z" fill="#0077FF"/>
</svg>
