<svg width="45" height="45" viewBox="0 0 45 45" fill="none" xmlns="http://www.w3.org/2000/svg">
<path fill-rule="evenodd" clip-rule="evenodd" d="M24.4016 14.443L38.8229 39.4215C39.0156 39.7553 39.117 40.1339 39.117 40.5193C39.1169 40.9047 39.0154 41.2834 38.8227 41.6171C38.63 41.9509 38.3528 42.2281 38.019 42.4208C37.6853 42.6135 37.3066 42.715 36.9212 42.715H8.07869C7.69324 42.715 7.31457 42.6135 6.98076 42.4208C6.64694 42.2281 6.36974 41.9509 6.17701 41.6171C5.98428 41.2833 5.88281 40.9046 5.88281 40.5191C5.88281 40.1337 5.98427 39.755 6.177 39.4212L20.5983 14.4427C20.791 14.1089 21.0682 13.8317 21.402 13.6389C21.7358 13.4462 22.1145 13.3447 22.5 13.3447C22.8854 13.3447 23.2641 13.4462 23.5979 13.6389C23.9317 13.8317 24.2089 14.1089 24.4016 14.4427V14.443Z" fill="#80C0FF"/>
<path fill-rule="evenodd" clip-rule="evenodd" d="M22.5 36.7461C22.7642 36.7461 23.0225 36.8244 23.2422 36.9712C23.4619 37.118 23.6331 37.3267 23.7342 37.5708C23.8354 37.8149 23.8618 38.0835 23.8103 38.3427C23.7587 38.6018 23.6315 38.8398 23.4446 39.0267C23.2578 39.2135 23.0198 39.3408 22.7606 39.3923C22.5015 39.4438 22.2329 39.4174 21.9888 39.3163C21.7446 39.2152 21.536 39.0439 21.3892 38.8242C21.2424 38.6045 21.1641 38.3463 21.1641 38.082C21.1641 37.7277 21.3048 37.3879 21.5553 37.1374C21.8059 36.8868 22.1457 36.7461 22.5 36.7461Z" fill="#0077FE"/>
<path fill-rule="evenodd" clip-rule="evenodd" d="M21.7121 33.8158C21.6489 33.5109 20.9887 30.3131 20.5413 27.5743C20.299 26.0911 20.1172 24.7294 20.1172 23.9816C20.1157 23.6485 20.1811 23.3185 20.3094 23.0112C20.4377 22.7038 20.6264 22.4253 20.8643 22.1922C21.2987 21.7589 21.8873 21.5156 22.5008 21.5156C23.1144 21.5156 23.703 21.7589 24.1374 22.1922C24.3753 22.4253 24.564 22.7038 24.6923 23.0112C24.8207 23.3185 24.886 23.6485 24.8845 23.9816C24.8845 24.7294 24.7027 26.091 24.4604 27.5743C23.9903 30.4516 23.2855 33.8354 23.2846 33.8395C23.1782 34.3354 22.741 34.6385 22.3082 34.5162C22.1539 34.4659 22.0164 34.3739 21.9112 34.2502C21.806 34.1266 21.737 33.9762 21.7121 33.8158Z" fill="#0077FE"/>
<path fill-rule="evenodd" clip-rule="evenodd" d="M25.0088 14.0913L39.4301 39.0698C39.6844 39.5104 39.8183 40.0101 39.8183 40.5188C39.8184 41.0274 39.6846 41.5272 39.4304 41.9678C39.1762 42.4084 38.8105 42.7744 38.3701 43.0289C37.9297 43.2835 37.4301 43.4177 36.9214 43.4181H8.07891C5.87576 43.4181 4.43549 41.0349 5.57025 39.0696L19.9915 14.0911C21.1367 12.1076 23.9146 12.2014 25.0077 14.0918L25.0088 14.0913ZM33.3683 8.90921H35.0968L31.1583 12.8478C31.0302 12.9805 30.9593 13.1581 30.9609 13.3424C30.9625 13.5268 31.0365 13.7031 31.1669 13.8335C31.2972 13.9639 31.4736 14.0378 31.6579 14.0394C31.8423 14.041 32.0199 13.9701 32.1525 13.8421L36.0911 9.90351V11.632C36.0911 11.8184 36.1652 11.9973 36.2971 12.1292C36.429 12.261 36.6078 12.3351 36.7943 12.3351C36.9808 12.3351 37.1596 12.261 37.2915 12.1292C37.4233 11.9973 37.4974 11.8184 37.4974 11.632V8.20608C37.4974 8.0196 37.4233 7.84076 37.2915 7.7089C37.1596 7.57703 36.9808 7.50296 36.7943 7.50296H33.3683C33.1818 7.50296 33.003 7.57703 32.8711 7.7089C32.7392 7.84076 32.6652 8.0196 32.6652 8.20608C32.6652 8.39256 32.7392 8.5714 32.8711 8.70327C33.003 8.83513 33.1818 8.90921 33.3683 8.90921ZM8.9093 11.632V9.90351L12.8479 13.8421C12.9805 13.9701 13.1581 14.041 13.3424 14.0394C13.5268 14.0378 13.7031 13.9639 13.8335 13.8335C13.9639 13.7031 14.0378 13.5268 14.0394 13.3424C14.041 13.1581 13.9702 12.9805 13.8421 12.8478L9.90352 8.90921H11.632C11.8185 8.90921 11.9973 8.83513 12.1292 8.70327C12.261 8.5714 12.3351 8.39256 12.3351 8.20608C12.3351 8.0196 12.261 7.84076 12.1292 7.7089C11.9973 7.57703 11.8185 7.50296 11.632 7.50296H8.20618C8.0197 7.50296 7.84086 7.57703 7.70899 7.7089C7.57713 7.84076 7.50305 8.0196 7.50305 8.20608V11.632C7.50305 11.8184 7.57713 11.9973 7.70899 12.1292C7.84086 12.261 8.0197 12.3351 8.20618 12.3351C8.39266 12.3351 8.5715 12.261 8.70336 12.1292C8.83522 11.9973 8.9093 11.8184 8.9093 11.632ZM5.20498 24.4255L3.98268 23.2032H9.55275C9.73923 23.2032 9.91807 23.1291 10.0499 22.9973C10.1818 22.8654 10.2559 22.6866 10.2559 22.5001C10.2559 22.3136 10.1818 22.1348 10.0499 22.0029C9.91807 21.871 9.73923 21.797 9.55275 21.797H3.98268L5.20498 20.5753C5.27147 20.5103 5.3244 20.4327 5.36071 20.3471C5.39702 20.2615 5.41598 20.1695 5.4165 20.0765C5.41702 19.9835 5.39909 19.8913 5.36374 19.8053C5.32839 19.7193 5.27633 19.6411 5.21057 19.5754C5.14481 19.5096 5.06666 19.4576 4.98064 19.4222C4.89463 19.3869 4.80245 19.3689 4.70945 19.3694C4.61646 19.37 4.52449 19.3889 4.43887 19.4252C4.35325 19.4615 4.27569 19.5145 4.21067 19.581L1.79192 21.9991C1.6671 22.1219 1.59262 22.2868 1.58308 22.4617C1.57353 22.6365 1.62961 22.8086 1.74033 22.9442L4.21067 25.4195C4.2756 25.4864 4.35317 25.5397 4.43888 25.5763C4.52459 25.6129 4.61672 25.6321 4.70992 25.6328C4.80312 25.6335 4.89552 25.6156 4.98176 25.5803C5.068 25.545 5.14635 25.4928 5.21225 25.4269C5.27816 25.361 5.3303 25.2827 5.36566 25.1964C5.40102 25.1102 5.41887 25.0178 5.4182 24.9246C5.41752 24.8314 5.39832 24.7393 5.36172 24.6536C5.32511 24.5678 5.27183 24.4904 5.20498 24.4255ZM39.7954 20.5753L41.0177 21.797H35.4476C35.2611 21.797 35.0823 21.871 34.9504 22.0029C34.8186 22.1348 34.7445 22.3136 34.7445 22.5001C34.7445 22.6866 34.8186 22.8654 34.9504 22.9973C35.0823 23.1291 35.2611 23.2032 35.4476 23.2032H41.0177L39.7954 24.4254C39.666 24.5578 39.594 24.7358 39.595 24.9209C39.596 25.1061 39.67 25.2833 39.8009 25.4142C39.9318 25.5451 40.1091 25.6191 40.2942 25.6201C40.4793 25.6212 40.6573 25.5491 40.7897 25.4197L43.2084 23.0009C43.3332 22.8781 43.4077 22.7132 43.4172 22.5384C43.4268 22.3636 43.3707 22.1915 43.26 22.0559L40.7897 19.5804C40.6578 19.4486 40.4789 19.3745 40.2924 19.3746C40.1058 19.3746 39.927 19.4488 39.7951 19.5807C39.6633 19.7126 39.5892 19.8915 39.5893 20.078C39.5893 20.2646 39.6635 20.4434 39.7954 20.5753ZM20.5748 5.20497C20.4425 5.33439 20.2644 5.4064 20.0793 5.40536C19.8942 5.40433 19.717 5.33033 19.5861 5.19944C19.4552 5.06854 19.3812 4.8913 19.3801 4.70619C19.3791 4.52107 19.4511 4.34302 19.5805 4.21066L22.056 1.74032C22.1916 1.62961 22.3637 1.57353 22.5385 1.58308C22.7133 1.59262 22.8782 1.6671 23.001 1.79191L25.4198 4.21066C25.4863 4.27568 25.5392 4.35324 25.5756 4.43886C25.6119 4.52448 25.6308 4.61645 25.6313 4.70944C25.6319 4.80244 25.6139 4.89462 25.5786 4.98063C25.5432 5.06665 25.4912 5.1448 25.4254 5.21056C25.3597 5.27632 25.2815 5.32838 25.1955 5.36373C25.1095 5.39908 25.0173 5.41701 24.9243 5.41649C24.8313 5.41597 24.7393 5.39701 24.6537 5.3607C24.5681 5.32439 24.4905 5.27146 24.4255 5.20497L23.2033 3.98267V9.55274C23.2033 9.73922 23.1292 9.91806 22.9974 10.0499C22.8655 10.1818 22.6867 10.2559 22.5002 10.2559C22.3137 10.2559 22.1349 10.1818 22.003 10.0499C21.8711 9.91806 21.7971 9.73922 21.7971 9.55274V3.98267L20.5748 5.20497ZM21.0227 33.9479C21.0759 34.2318 21.2016 34.4971 21.3875 34.7181C22.1985 35.6719 23.6927 35.2709 23.9703 33.988C24.2985 32.4757 25.5872 25.9636 25.5872 23.9817C25.5901 23.3547 25.4072 22.7409 25.0615 22.2178C24.7158 21.6947 24.2228 21.2858 23.6449 21.0426C21.6081 20.2006 19.4137 21.7711 19.4137 23.9817C19.4137 26.0053 20.6721 32.2556 21.0227 33.9479ZM21.7417 30.3371L22.4009 33.6843C22.4578 33.9434 22.583 33.825 22.597 33.6916C22.5977 33.6888 22.9152 32.1668 23.2562 30.3503C23.523 28.9294 24.1806 25.3426 24.1806 23.982C24.1806 22.4553 22.4356 21.6366 21.3526 22.6953C21.1821 22.8631 21.0471 23.0635 20.9556 23.2845C20.8641 23.5056 20.8179 23.7428 20.8199 23.982C20.8199 25.3402 21.4754 28.9173 21.7417 30.3371ZM22.5002 36.0431C21.9594 36.0431 21.4407 36.258 21.0583 36.6404C20.6759 37.0228 20.4611 37.5414 20.4611 38.0822C20.4611 39.892 22.6599 40.8055 23.9416 39.5236C25.2233 38.2417 24.3098 36.0431 22.5002 36.0431ZM22.9475 37.6346C22.8591 37.5461 22.7463 37.4858 22.6235 37.4613C22.5008 37.4369 22.3735 37.4494 22.2579 37.4973C22.1422 37.5452 22.0434 37.6263 21.9738 37.7303C21.9043 37.8344 21.8672 37.9568 21.8672 38.0819C21.8672 38.2071 21.9043 38.3295 21.9738 38.4335C22.0434 38.5376 22.1422 38.6187 22.2579 38.6666C22.3735 38.7145 22.5008 38.727 22.6235 38.7026C22.7463 38.6781 22.8591 38.6178 22.9475 38.5293C23.066 38.4106 23.1326 38.2497 23.1326 38.0819C23.1326 37.9142 23.066 37.7533 22.9475 37.6346ZM38.2161 39.7728L23.7948 14.7944L23.796 14.7937C23.6659 14.5649 23.4775 14.3746 23.2499 14.2423C23.0224 14.11 22.7638 14.0403 22.5005 14.0404C22.2373 14.0404 21.9788 14.1102 21.7513 14.2427C21.5238 14.3752 21.3355 14.5655 21.2055 14.7944L6.7842 39.7728C6.65023 39.9994 6.57896 40.2576 6.57769 40.5208C6.57643 40.7841 6.64521 41.0429 6.77699 41.2708C6.90877 41.4987 7.0988 41.6874 7.32758 41.8176C7.55637 41.9479 7.81568 42.0149 8.07891 42.0118H36.9214C37.1842 42.0136 37.4427 41.9458 37.6707 41.8152C37.8988 41.6847 38.0882 41.4961 38.2197 41.2687C38.3512 41.0412 38.4202 40.783 38.4195 40.5202C38.4189 40.2575 38.3487 39.9996 38.2161 39.7728Z" fill="#0077FF"/>
</svg>
