<svg width="261" height="203" viewBox="0 0 261 203" fill="none" xmlns="http://www.w3.org/2000/svg"><g opacity=".08"><path d="m45.729 149.33 12.188-7.495a16.04 16.04 0 0 0 7.2-9.939 16.02 16.02 0 0 0-1.935-12.114l-10.564-17.178-18.763 11.538a8.316 8.316 0 0 0-2.729 11.443z" fill="#3EA3DC"/><path d="m20.94 122.085-13.69 8.419a8.33 8.33 0 0 0-3.737 5.158 8.32 8.32 0 0 0 1.004 6.287l24.757 40.258a8.32 8.32 0 0 0 11.44 2.725l10.158-6.246a4.164 4.164 0 0 0 1.368-5.719z" fill="#FC0"/><path d="m64.173 146.824-14.5 8.917 8.395 13.653a4.16 4.16 0 0 0 5.721 1.359l15.467-9.511a8.007 8.007 0 0 0 2.628-11.009l-5.913-9.617-4.202-6.833a15.98 15.98 0 0 1-7.596 13.041" fill="#86BC25"/><path d="M71.854 92.328a5.4 5.4 0 0 1 3.468 2.538 5.28 5.28 0 0 1 .693 4.205 5.76 5.76 0 0 1-2.766 3.539 5.63 5.63 0 0 1-4.33.81 5.28 5.28 0 0 1-3.442-2.514 5.4 5.4 0 0 1-.708-4.235 5.57 5.57 0 0 1 2.657-3.53 5.68 5.68 0 0 1 4.428-.813m8.45 10.692-9.765 6.005 25.506 41.476 9.765-6.005zm32.748-31.588q8.187.754 13.339 9.132 5.382 8.751 2.445 16.622-2.937 7.87-12.345 13.631l-6.168 3.793 12.004 19.521-10.066 6.19-33.1-53.828 15.557-9.567q10.134-6.232 18.334-5.494m4.819 25.019q1.372-3.923-2.012-9.425-5.768-9.379-16.674-2.672l-5.418 3.332 11.909 19.366 5.418-3.332q5.418-3.317 6.785-7.255zm33.825-38.066 4.135 10.484a17.3 17.3 0 0 0-3.865 1.745c-2.393 1.47-3.407 3.667-4.075 6.027-.701 2.472-.802 5.887 1.523 9.832l13.924 22.643-9.762 6.002-25.501-41.47 8.466-5.205 5.793 7.365q-1.227-5.238.1-9.257a11.16 11.16 0 0 1 4.903-6.219 17 17 0 0 1 4.359-1.947m47.57-2.041q-5.909-9.609-13.868-12.12-7.959-2.512-16.425 2.694-5.569 3.425-7.889 8.71a20.64 20.64 0 0 0-1.442 11.502q.887 6.239 4.685 12.408 6.002 9.759 14.47 12.33 8.469 2.569 17.692-3.108 8.238-5.065 11.624-14.607l-6.014-7.354a35 35 0 0 1-1.435 4.26 27.8 27.8 0 0 1-3.373 5.803 16.9 16.9 0 0 1-4.492 3.974q-4.27 2.625-8.413 1.704-4.143-.922-8.218-6.526l25.324-15.572c-1.166-2.202-1.913-3.59-2.226-4.098m-11.134 3.605-15.867 9.757q-3.186-6.03-2.779-9.904t3.988-6.075q7.856-4.83 14.372 5.766zm37.749-40.354q7.087 3.313 13.274 13.374 3.846 6.256 4.951 12.244t-.827 10.963q-1.937 4.974-6.893 8.022-6.41 3.942-12.876 1.825l10.014 16.285-8.793 7.578-33.767-54.913 8.553-5.26 3.58 4.63c.26-2.797 1.151-5.5 2.607-7.904a16.6 16.6 0 0 1 5.468-5.465q7.626-4.695 14.709-1.38m3.097 19.738q-4.547-7.393-8.469-9.502t-7.738.243a9.23 9.23 0 0 0-3.662 4.297 15.3 15.3 0 0 0-1.2 6.258l11.159 18.148q5.407 2.464 9.984-.35 8.466-5.207-.074-19.094" fill="#575756"/></g></svg>